<?xml version="1.0" standalone="no"?>
<!DOCTYPE svg PUBLIC "-//W3C//DTD SVG 20010904//EN"
 "http://www.w3.org/TR/2001/REC-SVG-20010904/DTD/svg10.dtd">
<svg version="1.0" xmlns="http://www.w3.org/2000/svg"
 width="1797.000000pt" height="1797.000000pt" viewBox="0 0 1797.000000 1797.000000"
 preserveAspectRatio="xMidYMid meet">
<metadata>
Created by potrace 1.11, written by Peter Selinger 2001-2013
</metadata>
<g transform="translate(0.000000,1797.000000) scale(0.100000,-0.100000)"
fill="#000000" stroke="none">
<path d="M10945 17960 c3 -6 0 -10 -7 -11 -7 0 -22 -3 -33 -6 -11 -2 -34 -5
-52 -6 -17 -1 -29 -5 -27 -8 3 -6 -71 -30 -101 -33 -5 -1 -12 -3 -15 -6 -16
-16 -52 -29 -66 -23 -11 4 -15 2 -11 -4 6 -10 -37 -29 -55 -25 -5 1 -8 -3 -8
-9 0 -6 -7 -8 -16 -5 -8 3 -13 2 -10 -3 6 -9 -37 -31 -61 -31 -9 0 -14 -3 -11
-6 7 -6 -120 -76 -139 -77 -7 0 -10 -4 -8 -8 6 -9 -25 -23 -44 -20 -7 1 -10
-2 -7 -8 6 -9 -25 -34 -35 -28 -2 1 -3 0 -2 -2 1 -2 -17 -17 -40 -34 -23 -17
-72 -56 -108 -88 -36 -32 -69 -56 -73 -54 -3 3 -4 2 -2 -1 7 -10 -74 -85 -85
-79 -5 4 -8 1 -7 -7 2 -7 -2 -12 -9 -11 -7 2 -10 -3 -7 -11 3 -8 -3 -20 -13
-27 -10 -8 -31 -30 -47 -49 -16 -19 -33 -34 -38 -32 -5 1 -7 -1 -4 -6 3 -5
-14 -34 -37 -64 -23 -31 -49 -66 -57 -78 -8 -13 -23 -32 -32 -42 -10 -10 -18
-20 -18 -23 1 -13 -35 -63 -42 -59 -4 3 -6 -1 -3 -8 3 -7 -11 -37 -30 -66 -19
-30 -35 -60 -35 -67 0 -8 -7 -20 -15 -29 -9 -8 -17 -19 -18 -23 -1 -4 -5 -7
-9 -6 -4 2 -5 -3 -2 -10 2 -7 -8 -42 -24 -77 -27 -60 -43 -98 -47 -110 -1 -3
-7 -18 -13 -33 -7 -16 -12 -33 -12 -38 0 -6 -5 -7 -12 -3 -7 4 -8 3 -4 -5 4
-6 2 -28 -5 -49 -7 -20 -12 -40 -11 -44 1 -5 -2 -8 -6 -8 -5 0 -9 -6 -10 -12
-1 -24 -12 -68 -24 -95 -6 -16 -12 -35 -12 -43 -4 -45 -19 -109 -25 -106 -3 2
-7 -8 -7 -22 -1 -15 -4 -43 -8 -62 -3 -19 -8 -54 -12 -77 -4 -24 -9 -41 -13
-39 -3 2 -6 -15 -7 -37 -1 -39 -6 -100 -20 -222 -3 -27 -6 -61 -7 -75 -1 -14
-6 -28 -12 -32 -6 -5 -5 -8 3 -8 8 0 10 -6 5 -17 -7 -15 -8 -67 -4 -148 1 -12
8 -21 19 -22 22 -2 77 -10 77 -12 0 -1 32 -4 70 -6 62 -5 86 -7 160 -18 11 -1
26 -6 33 -10 7 -5 12 -3 12 3 0 6 4 9 9 6 4 -3 30 -8 57 -11 27 -2 60 -7 74
-10 14 -3 53 -7 88 -10 34 -2 70 -6 80 -9 9 -3 49 -8 87 -12 39 -3 86 -8 105
-11 19 -2 48 -4 63 -3 16 0 26 -3 23 -8 -2 -4 10 -8 27 -8 41 -1 165 -12 195
-18 13 -3 43 -6 68 -7 24 -2 44 -5 44 -8 0 -4 12 -6 28 -6 24 -1 192 -16 217
-21 6 -1 21 -2 35 -3 21 -1 22 -3 10 -12 -12 -9 -11 -9 5 -4 11 4 25 7 30 6 6
0 26 -2 45 -5 19 -2 55 -5 80 -6 25 -2 49 -6 55 -8 5 -3 36 -7 69 -10 33 -2
68 -8 78 -13 12 -7 18 -6 18 1 0 6 4 9 9 5 5 -3 31 -7 58 -10 26 -3 64 -8 83
-12 19 -3 46 -7 60 -8 186 -19 249 -26 275 -32 23 -5 59 -10 135 -17 153 -15
180 -19 180 -30 0 -7 3 -7 8 1 10 16 54 5 45 -11 -4 -6 1 -5 11 3 10 9 20 11
24 5 4 -5 36 -10 72 -11 36 -1 83 -5 105 -8 70 -9 100 -14 100 -15 0 -1 16 -3
35 -5 163 -15 272 -30 276 -37 3 -5 12 -4 20 3 8 6 14 8 14 3 0 -5 25 -10 55
-12 30 -2 69 -5 87 -7 18 -3 58 -8 88 -11 30 -4 58 -12 62 -18 5 -7 8 -6 8 4
0 9 3 11 8 5 4 -5 25 -10 47 -11 39 -1 102 -8 180 -19 22 -4 56 -8 75 -10 129
-11 186 -19 195 -26 6 -4 17 -4 24 1 14 8 51 111 51 143 0 9 4 17 8 17 5 0 9
8 9 18 -1 56 4 83 13 77 7 -4 9 3 6 19 -3 14 -2 26 2 26 4 0 7 15 8 33 1 53 8
98 15 103 4 2 5 13 2 24 -3 13 0 20 8 20 11 0 11 2 -1 10 -8 5 -10 10 -5 10 6
0 11 15 11 33 10 217 17 314 26 324 6 7 6 13 1 13 -5 0 -10 48 -12 108 -4 186
-6 222 -12 222 -3 0 -5 11 -4 25 2 14 -1 25 -6 25 -6 0 -5 8 1 20 7 14 7 20 0
20 -5 0 -9 3 -8 8 1 4 -2 27 -6 51 -8 40 -15 97 -18 129 -1 6 -4 12 -8 12 -4
0 -7 6 -8 13 -1 11 -6 36 -14 77 -2 8 -7 21 -11 28 -5 6 -5 17 -2 22 3 6 2 10
-2 10 -5 0 -15 21 -22 48 -8 26 -17 52 -21 57 -8 11 -19 54 -19 69 1 5 -4 12
-10 16 -6 3 -13 17 -16 29 -2 13 -15 42 -28 64 -13 23 -22 49 -19 57 2 8 1 12
-3 8 -4 -4 -23 23 -42 60 -19 37 -38 69 -44 70 -5 2 -9 8 -9 12 0 12 -62 104
-72 108 -4 2 -8 8 -8 14 0 11 -79 110 -92 116 -5 2 -8 8 -8 13 0 6 -25 35 -55
66 -30 31 -52 60 -48 66 3 6 1 7 -5 3 -6 -4 -30 12 -54 36 -39 39 -87 81 -174
152 -18 14 -37 26 -42 26 -6 0 -17 8 -24 19 -7 10 -23 21 -35 25 -13 4 -23 12
-23 17 0 5 -5 9 -10 9 -20 0 -100 56 -93 65 5 4 3 5 -4 1 -12 -6 -61 18 -74
37 -3 5 -8 7 -10 5 -8 -5 -89 35 -89 44 0 5 -4 7 -9 3 -10 -6 -62 14 -72 28
-3 5 -9 8 -13 8 -3 0 -11 1 -18 4 -7 2 -30 9 -51 15 -20 6 -35 15 -32 20 3 4
-4 6 -14 3 -11 -3 -35 3 -53 12 -18 9 -44 19 -58 21 -14 2 -40 6 -58 10 -18 3
-30 9 -27 14 3 5 -212 9 -530 9 -348 1 -534 -3 -530 -9z"/>
<path d="M603 16933 c4 -6 -11 -10 -36 -11 -50 -2 -172 -38 -207 -62 -14 -10
-32 -15 -40 -12 -8 3 -12 1 -8 -3 4 -4 -14 -23 -40 -43 -26 -19 -48 -39 -50
-44 -2 -4 -10 -8 -18 -8 -8 0 -14 -4 -14 -9 0 -5 -14 -24 -31 -42 -37 -40 -92
-123 -109 -166 -7 -18 -17 -30 -23 -26 -6 3 -7 1 -3 -5 4 -6 0 -28 -9 -48 -12
-28 -15 -78 -15 -220 0 -100 4 -185 9 -188 5 -3 12 -18 16 -33 3 -16 14 -36
22 -45 9 -10 13 -18 9 -18 -10 0 53 -88 86 -119 51 -51 76 -69 149 -112 41
-24 76 -46 79 -49 3 -3 11 -6 19 -8 17 -4 73 -42 83 -57 4 -5 8 -7 8 -2 0 11
60 -22 60 -33 0 -6 6 -10 14 -10 19 0 127 -66 121 -74 -3 -3 -2 -4 1 -1 8 5
107 -46 112 -57 2 -5 10 -8 18 -8 8 0 14 -4 14 -10 0 -5 9 -10 20 -10 11 0 20
-4 20 -10 0 -5 6 -10 14 -10 8 0 16 -3 18 -7 3 -8 41 -30 131 -76 20 -10 37
-23 37 -28 0 -5 7 -9 16 -9 8 0 34 -13 57 -28 23 -16 116 -71 207 -122 91 -52
167 -97 170 -100 3 -3 20 -12 38 -19 17 -8 32 -16 32 -20 0 -4 12 -12 28 -19
35 -15 136 -73 142 -82 3 -4 20 -13 38 -21 17 -8 32 -17 32 -21 0 -5 5 -8 10
-8 14 0 209 -113 233 -134 9 -9 19 -16 22 -16 3 0 9 0 14 0 5 0 16 -6 23 -13
7 -7 24 -18 38 -25 14 -7 43 -23 65 -37 22 -13 52 -29 67 -36 16 -6 25 -15 22
-20 -3 -5 -2 -8 3 -7 16 4 83 -34 76 -45 -3 -5 -2 -7 4 -4 9 6 81 -27 93 -42
3 -4 16 -12 30 -19 30 -14 79 -43 112 -64 39 -26 68 -32 68 -14 0 9 3 16 8 16
4 0 16 19 27 43 11 23 26 48 32 55 7 7 13 18 13 24 0 6 6 19 14 27 7 9 29 45
48 81 20 36 45 81 56 100 43 73 85 146 96 167 6 13 15 23 19 23 5 0 5 5 2 10
-3 6 1 13 9 16 9 3 14 9 12 13 -2 3 11 31 30 61 18 30 40 70 48 88 8 17 20 32
26 32 6 0 9 4 6 8 -3 5 6 25 20 45 14 20 22 37 19 37 -3 0 2 11 11 25 9 14 21
22 27 18 6 -3 7 -1 3 5 -9 15 24 73 37 65 6 -3 7 -1 3 6 -4 6 9 38 29 72 36
58 36 61 19 74 -11 8 -27 17 -37 20 -9 4 -15 11 -11 16 3 5 2 9 -3 8 -21 -4
-34 2 -27 13 4 7 3 8 -5 4 -7 -5 -29 3 -51 18 -22 14 -44 26 -50 26 -6 0 -13
7 -16 15 -4 8 -9 13 -13 10 -4 -2 -19 4 -32 13 -34 24 -79 50 -116 67 -18 9
-33 20 -33 25 0 6 -3 9 -7 8 -10 -3 -127 63 -131 74 -2 4 -12 8 -23 8 -10 0
-19 4 -19 9 0 5 -16 15 -35 22 -19 7 -35 16 -35 21 0 4 -19 16 -42 28 -69 33
-88 46 -80 54 4 4 3 6 -3 4 -13 -4 -75 22 -75 31 0 4 -16 13 -35 21 -19 7 -31
18 -28 23 3 6 2 7 -4 4 -5 -3 -35 10 -67 29 -31 18 -62 34 -67 34 -6 0 -7 5
-3 12 4 6 3 8 -3 5 -6 -4 -23 3 -39 16 -16 12 -30 21 -31 19 -2 -1 -13 4 -26
11 -12 7 -46 28 -75 45 -29 18 -58 32 -63 32 -5 0 -9 4 -9 9 0 5 -11 12 -25
15 -14 4 -25 11 -25 16 0 6 -5 10 -11 10 -6 0 -38 16 -72 36 -58 34 -91 53
-148 86 -13 7 -26 15 -29 18 -3 3 -25 16 -50 29 -25 13 -52 30 -61 38 -9 7
-18 11 -21 8 -3 -3 -18 7 -34 22 -16 15 -31 26 -34 25 -10 -4 -40 10 -40 18 0
4 -10 10 -23 14 -12 3 -32 15 -45 26 -12 11 -22 18 -22 15 0 -3 -13 2 -29 11
-17 10 -27 22 -24 27 3 6 1 7 -6 3 -6 -4 -24 2 -40 13 -16 12 -31 21 -34 21
-3 0 -52 28 -109 61 -57 34 -112 67 -123 73 -11 6 -39 24 -62 39 -24 15 -47
27 -53 27 -5 0 -10 5 -10 11 0 5 -4 8 -9 4 -5 -3 -16 2 -25 10 -8 9 -18 16
-21 15 -33 -2 -45 2 -39 12 4 6 3 8 -4 4 -16 -10 -123 5 -116 16 4 6 0 7 -12
1 -23 -11 -34 -11 -53 1 -9 6 -12 5 -8 -1z"/>
<path d="M4114 14975 c-4 -8 -10 -12 -15 -9 -5 3 -8 2 -7 -3 3 -11 -40 -100
-52 -108 -6 -4 -8 -10 -5 -15 3 -4 -2 -11 -11 -14 -8 -3 -13 -10 -10 -14 3 -5
-3 -18 -14 -29 -10 -12 -16 -24 -13 -27 4 -3 -1 -14 -9 -23 -9 -10 -31 -47
-49 -83 -18 -36 -36 -67 -39 -70 -3 -3 -21 -35 -40 -72 -19 -38 -37 -68 -41
-68 -4 0 -10 -13 -14 -30 -4 -16 -11 -30 -16 -30 -5 0 -9 -6 -9 -14 0 -8 -6
-21 -12 -28 -13 -13 -34 -50 -99 -175 -17 -34 -37 -60 -42 -56 -6 3 -7 1 -3
-5 8 -14 -48 -118 -62 -115 -6 1 -8 -5 -5 -15 2 -9 -4 -26 -14 -37 -10 -12
-19 -27 -21 -35 -2 -8 -7 -17 -10 -20 -4 -3 -8 -12 -9 -20 -2 -16 31 -39 167
-115 47 -26 87 -52 88 -56 2 -5 8 -7 13 -3 5 3 9 0 9 -5 0 -6 5 -11 10 -11 10
0 56 -25 169 -93 25 -15 54 -30 64 -33 9 -4 17 -11 17 -16 0 -5 4 -7 9 -3 5 3
12 1 15 -4 3 -5 29 -21 58 -36 29 -15 55 -30 58 -34 3 -3 34 -21 70 -40 36
-19 67 -37 70 -41 3 -3 21 -13 40 -22 19 -9 51 -27 70 -41 20 -13 50 -30 68
-38 17 -7 32 -17 32 -21 0 -5 4 -8 9 -8 13 0 155 -82 159 -92 2 -4 8 -8 13 -8
20 0 178 -97 171 -105 -4 -5 -2 -5 4 -2 12 7 127 -56 119 -65 -2 -2 5 -4 16
-5 10 -1 34 -12 52 -25 17 -13 34 -23 37 -23 10 -1 105 -59 112 -70 4 -5 8 -6
8 -1 0 5 6 4 13 -2 12 -10 58 -37 129 -75 20 -11 34 -25 31 -30 -3 -6 -1 -7 6
-3 6 4 23 -1 39 -12 15 -11 37 -23 50 -26 12 -4 22 -11 22 -16 0 -5 10 -12 23
-16 12 -4 46 -22 75 -40 29 -19 56 -34 61 -34 5 0 16 -6 23 -12 15 -14 38 -28
99 -60 21 -11 39 -25 39 -31 0 -6 3 -7 6 -4 8 8 64 -24 64 -36 0 -4 4 -6 8 -3
5 3 18 -3 29 -14 12 -10 24 -16 27 -13 3 4 6 2 6 -4 0 -5 23 -16 50 -23 28 -7
50 -16 50 -20 0 -3 47 -5 104 -5 57 0 102 2 100 4 -7 7 98 41 107 35 5 -3 9
-1 9 3 0 12 56 44 63 37 3 -3 10 4 17 15 6 12 16 21 21 21 14 0 149 136 149
150 0 5 4 10 9 10 5 0 14 14 21 30 7 17 16 30 20 30 4 0 13 14 20 30 7 17 15
30 19 30 4 0 7 9 8 20 1 10 8 34 16 52 8 18 21 54 28 81 7 26 17 47 22 47 5 0
4 7 -3 15 -7 8 -8 15 -2 15 6 0 9 47 9 124 -1 69 -4 123 -8 120 -4 -2 -10 13
-14 35 -3 21 -19 66 -35 99 -16 33 -26 63 -24 66 2 3 1 4 -3 1 -3 -3 -18 12
-31 33 -32 47 -96 112 -111 112 -6 0 -11 5 -11 10 0 6 -7 10 -15 10 -8 0 -15
5 -15 10 0 6 -6 10 -14 10 -7 0 -29 11 -49 24 -19 13 -38 22 -41 18 -3 -3 -6
0 -6 6 0 7 -7 12 -15 12 -8 0 -15 3 -15 8 0 4 -25 18 -55 32 -30 14 -55 31
-55 38 0 7 -5 10 -10 7 -6 -3 -23 3 -39 14 -16 12 -31 21 -34 21 -9 0 -112 65
-115 73 -2 4 -11 7 -21 7 -9 0 -22 5 -28 11 -12 12 -33 24 -101 59 -23 12 -40
25 -38 29 3 4 -4 8 -15 8 -10 1 -32 10 -47 20 -42 28 -63 40 -119 70 -29 15
-53 31 -53 36 0 4 -4 6 -9 3 -5 -3 -14 1 -21 9 -7 8 -18 15 -24 15 -7 0 -22 9
-34 20 -12 12 -22 18 -22 15 0 -3 -19 5 -42 19 -24 13 -42 29 -40 36 1 6 -2 9
-8 5 -12 -7 -140 62 -140 76 0 6 -3 8 -8 5 -12 -7 -123 60 -115 69 5 4 3 5 -3
2 -6 -3 -26 4 -45 16 -19 11 -36 22 -39 22 -24 7 -39 19 -33 29 3 6 3 8 -2 4
-8 -8 -107 40 -113 55 -2 4 -10 7 -18 7 -8 0 -14 5 -14 10 0 6 -9 10 -20 10
-10 0 -23 7 -28 16 -5 9 -11 15 -13 14 -6 -2 -43 13 -49 20 -3 4 -31 21 -62
38 -32 18 -84 46 -115 64 -32 17 -60 34 -63 38 -3 3 -34 21 -70 39 -36 19 -67
36 -70 40 -3 3 -22 14 -42 23 -21 10 -38 22 -38 28 0 5 -3 9 -7 8 -14 -4 -53
13 -53 23 0 5 -9 9 -20 9 -11 0 -20 4 -20 8 0 5 -18 17 -40 27 -22 10 -40 23
-40 28 0 6 -3 7 -6 4 -4 -3 -16 0 -28 8 -26 19 -35 19 -42 0z"/>
<path d="M13279 14876 c-2 -2 -38 -7 -79 -11 -73 -6 -109 -11 -160 -20 -50 -9
-206 -26 -271 -30 -19 -1 -39 -4 -45 -7 -8 -5 -104 -17 -194 -24 -19 -1 -35
-3 -35 -4 0 -1 -11 -3 -25 -5 -14 -2 -41 -6 -60 -9 -19 -4 -62 -8 -95 -10 -33
-3 -60 -5 -60 -6 0 -1 -16 -3 -35 -5 -19 -3 -51 -8 -70 -11 -19 -4 -53 -9 -75
-11 -80 -7 -131 -12 -170 -18 -94 -15 -281 -34 -293 -30 -7 3 -11 1 -8 -4 3
-5 -24 -12 -62 -16 -109 -11 -145 -15 -182 -20 -19 -3 -51 -7 -70 -10 -109
-14 -135 -18 -139 -21 -2 -2 -10 1 -18 7 -10 9 -13 8 -13 0 0 -7 -6 -11 -12
-10 -12 2 -34 -1 -141 -17 -16 -3 -54 -7 -85 -9 -31 -3 -65 -8 -76 -11 -14 -5
-16 -3 -10 7 7 12 5 12 -9 1 -9 -8 -37 -14 -62 -15 -24 -1 -45 -4 -45 -8 0 -6
-61 -12 -142 -13 -31 -1 -54 -5 -51 -10 3 -5 -6 -7 -21 -4 -14 3 -29 1 -32 -4
-3 -5 -13 -3 -22 4 -12 10 -14 10 -8 1 5 -9 1 -13 -11 -13 -10 -1 -43 -4 -73
-7 -30 -3 -72 -7 -92 -7 -21 -1 -38 -4 -38 -7 0 -11 -64 -8 -77 3 -10 8 -12 7
-7 -6 5 -13 -1 -16 -27 -17 -19 0 -43 -2 -54 -4 -11 -2 -45 -5 -76 -8 -30 -2
-61 -7 -67 -11 -7 -4 -12 -2 -12 6 0 9 -2 10 -8 2 -7 -11 -84 -24 -180 -29
-24 -1 -46 -5 -49 -9 -3 -3 -13 0 -21 7 -13 10 -14 9 -7 -2 6 -11 3 -13 -13
-9 -12 4 -22 3 -22 -2 0 -4 -6 -8 -12 -7 -56 2 -61 -2 -55 -38 5 -31 59 -114
79 -123 5 -2 8 -7 8 -12 0 -8 119 -130 126 -130 3 0 20 -15 38 -32 42 -40 121
-108 150 -127 12 -8 23 -17 26 -20 3 -4 23 -18 45 -33 35 -23 49 -26 106 -23
37 1 71 5 75 8 5 2 28 4 52 3 23 0 42 2 42 5 0 3 6 6 13 6 6 0 41 4 77 7 36 4
92 9 125 10 33 2 68 7 78 11 9 4 26 5 36 2 10 -2 25 -1 32 4 8 4 20 3 28 -4
12 -9 13 -9 7 1 -5 8 1 12 21 13 15 0 47 3 71 5 107 10 128 11 140 1 9 -7 11
-6 7 4 -4 11 5 14 37 15 24 1 61 4 83 8 22 4 67 9 100 12 60 4 99 8 165 18 19
3 64 8 100 10 36 3 65 6 65 6 0 1 26 3 58 5 32 2 61 6 64 9 4 3 13 0 21 -7 13
-10 14 -9 8 1 -5 9 0 12 21 12 15 -1 46 2 68 6 22 4 68 7 102 8 35 1 63 4 63
7 0 3 18 5 40 5 22 -1 40 3 40 8 0 5 8 2 17 -5 12 -10 15 -10 9 -1 -6 9 1 11
28 8 20 -2 38 -1 41 4 3 4 20 9 37 9 68 2 135 8 144 12 5 2 33 4 61 4 29 0 53
3 53 7 0 4 8 7 18 6 9 0 55 3 102 8 47 4 102 8 122 8 21 1 38 5 38 10 0 5 8 2
17 -5 11 -10 14 -10 9 -1 -5 8 2 12 26 13 18 1 44 2 58 4 14 2 57 6 95 9 132
12 146 15 165 38 11 13 19 27 20 31 0 5 5 5 10 2 6 -4 9 -3 8 2 -4 14 13 53
23 53 5 0 9 6 9 14 0 7 7 19 15 26 8 7 15 21 15 32 0 10 6 21 13 24 8 3 20 20
27 39 8 19 18 35 22 35 5 0 7 3 5 8 -2 4 4 21 14 37 10 17 34 65 55 108 20 42
41 77 46 77 5 0 8 6 7 13 -2 20 13 57 24 57 6 0 8 3 5 6 -4 3 1 22 9 42 21 49
24 82 9 82 -7 0 -15 -2 -17 -4z"/>
<path d="M14376 13493 c-8 -8 -327 -14 -852 -18 -478 -2 -606 -6 -623 -17 -11
-7 -21 -16 -21 -19 0 -6 -142 -159 -242 -261 -32 -32 -55 -58 -50 -58 4 0 -6
-9 -23 -20 -16 -11 -26 -20 -22 -20 5 0 -21 -29 -57 -65 -36 -36 -66 -70 -66
-76 0 -6 -4 -7 -10 -4 -5 3 -10 3 -10 -2 0 -13 -88 -102 -94 -96 -3 4 -6 1 -6
-5 0 -13 -871 -892 -884 -892 -14 0 -39 32 -41 51 -1 10 -58 79 -127 151 -69
73 -145 153 -168 178 -23 25 -104 110 -180 190 -76 80 -152 161 -170 180 -30
33 -292 309 -370 390 -19 20 -94 99 -167 176 -97 103 -139 140 -158 142 -14 1
-36 2 -50 3 -13 1 -30 8 -36 15 -6 8 -16 11 -22 7 -15 -9 -108 -9 -114 0 -2 4
-9 4 -15 1 -16 -10 -99 -11 -105 -1 -2 4 -9 5 -14 1 -6 -3 -37 -7 -70 -9 -53
-2 -58 0 -46 14 11 14 10 15 -7 1 -20 -16 -52 -19 -77 -8 -9 4 -19 4 -23 1 -4
-4 -20 -8 -37 -9 -27 -2 -29 -1 -17 14 12 15 11 16 -6 2 -20 -16 -52 -19 -77
-8 -9 4 -19 4 -23 1 -4 -4 -20 -8 -37 -9 -27 -2 -29 -1 -17 14 12 15 11 16 -6
2 -20 -16 -52 -19 -77 -8 -9 4 -19 4 -23 1 -4 -4 -20 -8 -37 -9 -27 -2 -29 -1
-17 14 12 15 11 16 -6 2 -20 -16 -52 -19 -78 -8 -9 5 -19 5 -22 0 -5 -9 -108
-8 -124 2 -6 3 -13 2 -17 -4 -4 -7 -12 -7 -25 0 -10 6 -21 7 -24 2 -4 -6 -145
-8 -171 -2 -5 1 -12 1 -15 0 -19 -7 -41 -7 -46 1 -3 5 -10 6 -16 3 -15 -9
-151 -9 -165 -1 -7 4 -14 3 -18 -3 -4 -7 -12 -7 -25 0 -10 6 -21 7 -24 2 -4
-6 -145 -8 -171 -2 -5 1 -12 1 -15 0 -19 -7 -41 -7 -46 1 -3 5 -10 6 -16 3
-15 -10 -159 -11 -165 -1 -2 4 -9 4 -15 1 -16 -10 -99 -11 -105 -1 -2 4 -9 5
-14 1 -6 -3 -37 -7 -70 -9 -53 -2 -58 0 -46 14 11 14 10 15 -7 1 -20 -16 -52
-19 -77 -8 -9 4 -19 4 -23 1 -4 -4 -20 -8 -37 -9 -27 -2 -29 -1 -17 14 12 15
11 16 -6 2 -20 -16 -52 -19 -77 -8 -9 4 -19 4 -23 1 -4 -4 -20 -8 -37 -9 -27
-2 -29 -1 -17 14 12 15 11 16 -6 2 -20 -16 -52 -19 -77 -8 -9 4 -19 4 -23 1
-4 -4 -20 -8 -37 -9 -27 -2 -29 -1 -17 14 12 15 11 16 -5 3 -20 -16 -55 -20
-74 -8 -6 4 -14 3 -18 -2 -3 -6 -12 -8 -20 -4 -16 6 -17 3 -17 -90 0 -31 -4
-60 -9 -63 -5 -3 -9 -11 -9 -17 0 -7 4 -6 10 3 6 9 8 -5 8 -43 -1 -32 -5 -60
-10 -63 -4 -3 -8 -11 -8 -17 0 -7 4 -6 10 3 6 9 8 -5 8 -43 -1 -32 -5 -60 -10
-63 -4 -3 -8 -11 -8 -17 0 -7 4 -6 10 3 6 9 8 -5 8 -43 -1 -32 -5 -60 -10 -63
-5 -3 -4 -12 3 -20 9 -11 8 -18 -2 -31 -8 -9 -9 -14 -3 -10 9 5 12 -8 11 -43
0 -28 -4 -53 -9 -56 -4 -3 -8 -11 -8 -17 0 -7 4 -6 10 3 6 9 8 -5 8 -43 -1
-32 -5 -60 -10 -63 -4 -3 -8 -11 -8 -17 0 -7 4 -6 10 3 6 9 8 -5 8 -43 -1 -32
-5 -60 -10 -63 -4 -3 -8 -11 -8 -17 0 -7 4 -6 10 3 6 9 8 -5 8 -43 -1 -32 -5
-60 -10 -63 -4 -3 -8 -11 -8 -17 0 -7 4 -6 10 3 6 9 8 -5 8 -43 -1 -32 -5 -60
-10 -63 -5 -3 -4 -12 3 -20 9 -11 8 -18 -2 -31 -8 -9 -9 -14 -3 -10 9 5 12 -8
11 -43 0 -28 -4 -53 -9 -56 -4 -3 -8 -11 -8 -17 0 -7 4 -6 10 3 6 9 8 -5 8
-43 -1 -32 -5 -60 -10 -63 -4 -3 -8 -11 -8 -17 0 -7 4 -6 10 3 6 9 8 -5 8 -43
-1 -32 -5 -60 -10 -63 -4 -3 -8 -11 -8 -17 0 -7 4 -6 10 3 6 9 8 -5 8 -43 -1
-32 -5 -60 -10 -63 -4 -3 -8 -11 -8 -17 0 -7 4 -6 10 3 6 9 8 -5 8 -43 -1 -32
-5 -60 -10 -63 -5 -3 -5 -11 -1 -17 13 -19 13 -338 0 -330 -6 4 -7 1 -1 -8 13
-21 15 -321 1 -312 -6 4 -7 1 -1 -8 12 -20 15 -77 4 -84 -6 -3 -10 -12 -10
-18 0 -7 4 -6 10 3 6 9 8 -5 8 -43 -1 -32 -5 -60 -10 -63 -4 -3 -8 -11 -8 -17
0 -7 4 -6 10 3 6 9 8 -5 8 -43 -1 -32 -5 -60 -10 -63 -4 -3 -8 -11 -8 -17 0
-7 4 -6 10 3 6 9 8 -5 8 -43 -1 -32 -5 -60 -10 -63 -4 -3 -8 -11 -8 -17 0 -7
4 -6 10 3 6 9 8 -5 8 -43 -1 -32 -5 -60 -10 -63 -4 -3 -8 -11 -8 -17 0 -7 4
-6 10 3 6 9 8 -5 8 -43 -1 -32 -5 -60 -10 -63 -4 -3 -8 -11 -8 -17 0 -7 4 -6
10 3 6 9 8 -5 8 -43 -1 -32 -5 -60 -10 -63 -4 -3 -8 -11 -8 -17 0 -7 4 -6 10
3 6 9 8 -5 8 -43 -1 -32 -5 -60 -10 -63 -4 -3 -8 -11 -8 -17 0 -7 4 -6 10 3 6
9 8 -5 8 -43 -1 -32 -5 -60 -10 -63 -4 -3 -8 -11 -8 -17 0 -7 4 -6 10 3 6 9 8
-5 8 -43 -1 -32 -5 -60 -10 -63 -4 -3 -8 -11 -8 -17 0 -7 4 -6 10 3 7 10 9 -2
8 -40 -1 -30 -6 -61 -12 -69 -7 -10 -7 -13 -1 -9 7 5 11 -44 12 -148 0 -103
-3 -152 -10 -147 -6 4 -7 1 -1 -8 5 -8 10 -34 10 -59 1 -25 2 -64 3 -86 l1
-42 66 2 c36 1 68 -2 71 -6 2 -5 9 -5 15 -2 16 10 287 10 281 0 -4 -5 0 -6 8
-1 18 12 239 12 232 1 -4 -5 0 -5 8 -1 19 12 49 14 55 3 3 -4 10 -5 16 -2 17
11 247 10 241 0 -4 -5 0 -6 8 -1 19 12 49 14 55 3 3 -4 10 -5 16 -2 17 11 247
10 241 0 -4 -5 0 -6 8 -1 19 12 49 14 55 3 3 -4 10 -5 16 -2 15 10 217 11 211
2 -6 -10 -63 -9 802 -10 413 -1 761 3 775 7 35 11 459 12 453 1 -4 -5 0 -6 8
-1 18 12 479 13 471 1 -3 -5 1 -6 9 -1 18 12 399 13 392 1 -4 -5 0 -5 8 -1 19
12 49 14 55 3 3 -4 10 -5 16 -2 17 11 247 10 241 0 -4 -5 0 -6 8 -1 19 12 49
14 55 3 3 -4 10 -5 16 -2 17 11 247 10 241 0 -4 -5 0 -6 8 -1 19 12 49 14 55
3 3 -4 10 -5 16 -2 17 11 247 10 241 0 -4 -5 0 -6 8 -1 19 12 49 14 55 3 3 -4
10 -5 16 -2 17 11 327 10 321 0 -4 -5 0 -6 8 -1 18 12 479 13 471 1 -3 -5 1
-6 9 -1 18 12 479 13 471 1 -3 -5 1 -6 9 -1 17 11 109 13 116 2 2 -4 9 -4 15
-1 17 10 187 11 181 0 -4 -5 0 -6 8 -1 18 12 479 13 471 1 -3 -5 1 -6 9 -1 18
12 479 13 471 1 -3 -5 1 -6 9 -1 18 12 239 12 232 1 -4 -5 0 -5 8 -1 19 12 49
14 55 3 3 -4 10 -5 16 -2 17 11 247 10 241 0 -4 -5 0 -6 8 -1 19 12 49 14 55
3 3 -4 10 -5 16 -2 6 4 43 8 82 9 39 1 74 3 77 4 3 0 7 38 8 83 1 45 4 84 6
87 3 2 -1 11 -8 19 -9 11 -9 16 -1 19 8 3 9 15 4 38 -5 23 -4 36 4 39 7 3 6 5
-2 5 -7 1 -10 6 -6 12 9 14 9 103 0 117 -3 6 -2 14 4 17 8 5 8 11 0 20 -8 9
-8 15 0 20 6 3 7 11 4 17 -3 5 -6 29 -5 51 6 172 4 597 -2 597 -5 0 -5 4 -2
10 3 5 7 451 8 990 1 676 4 980 12 980 6 0 6 3 -1 8 -13 8 -13 150 0 171 6 9
5 12 -1 8 -12 -8 -11 183 1 202 6 9 5 12 -1 8 -11 -7 -12 212 -1 229 4 6 4 14
0 18 -12 12 -9 266 3 266 6 0 7 3 0 8 -15 10 -17 32 -5 46 5 7 7 16 2 20 -11
12 -10 116 2 116 8 0 8 3 0 8 -5 4 -10 17 -11 30 0 12 -1 28 -2 35 -1 9 -158
12 -751 11 -571 0 -747 2 -740 11 7 9 -2 12 -36 11 -25 -1 -47 -2 -48 -3z"/>
<path d="M17205 13311 c-6 -5 -32 -12 -60 -15 -27 -4 -77 -16 -110 -26 -33
-11 -63 -19 -66 -17 -3 1 -13 -6 -23 -15 -10 -10 -23 -18 -30 -18 -7 0 -21 -8
-32 -18 -10 -9 -39 -32 -63 -50 -25 -17 -42 -32 -38 -32 4 0 -4 -12 -18 -27
-14 -15 -25 -31 -25 -36 0 -4 -4 -5 -10 -2 -6 4 -7 -1 -3 -11 5 -13 3 -15 -7
-9 -8 5 -11 4 -6 -3 7 -12 -13 -64 -23 -57 -4 2 -6 -9 -5 -26 1 -16 -1 -29 -5
-29 -4 0 -7 -667 -6 -1482 l0 -1483 127 -1 c70 -1 134 -4 142 -7 9 -4 18 -2
21 3 3 6 15 6 30 0 14 -5 25 -6 25 -2 0 4 51 6 112 5 199 -4 521 -3 529 2 4 3
10 1 14 -5 4 -6 11 -7 17 -4 14 9 124 8 138 -1 5 -3 10 -3 10 2 0 4 28 8 62 8
l63 0 2 1480 c1 814 -1 1482 -5 1485 -14 10 -32 62 -26 72 4 6 3 8 -3 5 -5 -3
-18 11 -29 31 -10 20 -31 49 -46 64 -16 15 -28 32 -28 38 0 6 -4 9 -9 6 -5 -4
-11 -2 -13 2 -5 13 -99 76 -135 91 -18 7 -30 18 -26 24 3 5 1 7 -5 3 -6 -3
-23 -1 -39 5 -15 6 -36 13 -45 15 -10 2 -28 7 -40 10 -13 3 -39 8 -58 10 -43
7 -73 12 -80 14 -14 5 -123 2 -145 -4 -18 -4 -24 -3 -20 4 8 12 2 13 -10 1z"/>
<path d="M16756 9063 c-4 -4 -17 -8 -29 -8 -21 0 -22 -4 -22 -88 0 -48 -3 -87
-7 -87 -4 0 -5 -6 -2 -14 8 -22 10 -226 2 -226 -4 0 -5 -6 -2 -14 8 -22 10
-226 2 -226 -4 0 -5 -6 -2 -14 8 -22 10 -226 2 -226 -4 0 -5 -6 -2 -14 8 -22
10 -226 2 -226 -4 0 -5 -7 -2 -15 9 -22 10 -465 2 -465 -4 0 -5 -6 -2 -14 8
-22 10 -226 2 -226 -4 0 -5 -6 -2 -14 8 -22 10 -226 2 -226 -4 0 -5 -6 -2 -14
8 -22 10 -226 2 -226 -4 0 -5 -6 -2 -14 8 -22 10 -226 2 -226 -4 0 -5 -6 -2
-14 9 -23 10 -226 1 -226 -5 0 -6 -4 -3 -9 3 -5 8 -53 11 -107 8 -132 8 -133
17 -128 4 3 8 0 8 -6 0 -6 12 -29 27 -53 15 -23 26 -45 25 -50 -1 -4 1 -6 6
-5 4 2 18 -7 32 -19 13 -13 28 -23 32 -23 5 0 6 -6 2 -12 -4 -7 -4 -10 1 -6 8
8 58 -17 83 -39 7 -7 18 -14 23 -14 5 -1 14 -3 19 -4 6 -1 17 -3 26 -4 9 0 12
-6 8 -13 -4 -6 -3 -9 2 -5 5 3 32 1 59 -5 28 -6 60 -11 73 -11 12 -1 22 -4 22
-8 0 -3 11 -4 25 -1 14 2 32 -1 40 -8 11 -9 15 -10 15 -1 0 8 8 10 23 5 12 -4
27 -7 32 -6 6 1 30 3 55 5 75 7 208 36 240 52 17 9 35 13 40 10 6 -3 10 -1 10
5 0 7 5 10 12 8 6 -2 20 4 30 14 10 10 23 16 28 13 6 -4 10 -2 10 4 0 5 8 12
18 15 9 3 31 19 48 35 18 17 35 27 38 24 3 -4 6 1 6 10 0 9 3 17 8 17 7 0 67
85 72 102 25 87 26 155 23 1538 -1 789 -2 1449 -3 1466 l0 31 -585 -1 c-322
-1 -586 3 -588 7 -1 5 -6 5 -11 0z"/>
<path d="M15820 8334 c0 -14 -553 -16 -5307 -18 -2314 -1 -3483 -4 -3484 -11
-1 -5 -1 -14 0 -19 1 -5 -4 -13 -11 -17 -9 -6 -9 -9 -1 -9 13 0 15 -108 1
-116 -4 -3 -8 -11 -8 -17 0 -7 4 -6 10 3 6 9 8 -5 8 -43 -1 -32 -5 -60 -10
-63 -4 -3 -8 -11 -8 -17 0 -7 4 -6 10 3 6 9 8 -5 8 -43 -1 -32 -5 -60 -10 -63
-4 -3 -8 -11 -8 -17 0 -7 4 -6 10 3 6 9 8 -5 8 -43 -1 -32 -5 -60 -10 -63 -5
-3 -5 -11 -1 -17 13 -19 13 -338 0 -330 -6 4 -7 1 -1 -8 13 -21 15 -321 1
-312 -6 4 -7 1 -1 -8 4 -8 9 -27 10 -43 2 -16 7 -32 12 -35 6 -3 2012 -6 4459
-6 l4448 0 5 57 c3 35 1 60 -5 62 -6 3 -3 9 5 15 12 8 12 11 1 11 -11 0 -11 3
-1 15 7 8 9 15 4 15 -10 0 -9 213 1 229 3 6 3 11 -2 11 -9 0 -8 214 2 229 3 6
3 11 -2 11 -4 0 -8 131 -8 290 0 160 2 290 5 290 3 0 6 9 6 20 0 11 -4 20 -9
20 -4 0 -6 4 -3 9 8 12 -12 17 -64 16 -25 -1 -48 3 -52 9 -6 8 -8 8 -8 0z"/>
<path d="M7257 6053 c-3 -5 -57 -8 -119 -7 l-114 2 2 -49 c2 -27 -1 -51 -7
-54 -5 -4 -9 -12 -9 -18 0 -7 4 -6 10 3 7 10 9 -2 8 -40 -1 -30 -6 -61 -12
-69 -7 -10 -7 -13 -1 -9 7 5 11 -44 12 -148 0 -103 -3 -152 -10 -147 -6 4 -7
1 -1 -8 13 -21 15 -321 1 -312 -6 4 -7 1 -1 -8 14 -22 14 -320 0 -312 -8 5 -8
3 0 -8 6 -8 11 -44 10 -81 l-1 -68 40 -1 c515 -7 2741 -11 2897 -6 37 2 70 6
74 9 8 8 7 1304 -1 1317 -3 5 -14 8 -25 6 -11 -2 -22 1 -25 6 -4 5 -11 6 -17
3 -18 -11 -228 -10 -228 1 0 6 -3 6 -8 0 -8 -12 -222 -14 -222 -2 0 5 -6 5
-12 0 -20 -11 -348 -10 -348 2 0 7 -3 7 -8 0 -6 -8 -125 -12 -157 -5 -5 1 -14
1 -20 0 -30 -8 -135 -4 -135 5 0 7 -3 7 -8 0 -6 -8 -125 -12 -157 -5 -5 1 -14
1 -20 0 -32 -8 -185 -4 -185 5 0 6 -3 6 -8 0 -8 -12 -222 -14 -222 -2 0 5 -6
5 -12 0 -20 -11 -348 -10 -348 2 0 7 -3 7 -8 0 -6 -8 -125 -12 -157 -5 -5 1
-14 1 -20 0 -32 -8 -185 -4 -185 5 0 6 -3 6 -8 0 -9 -13 -214 -14 -223 -1 -4
4 -9 4 -12 -1z"/>
<path d="M13077 6052 c-3 -4 -42 -7 -86 -6 -68 1 -81 -2 -82 -15 -6 -81 -2
-1304 4 -1308 21 -13 2945 -17 2997 -4 6 1 13 45 11 69 -2 30 -2 38 2 57 2 11
2 24 -1 29 -4 8 -6 77 -2 91 4 15 2 96 -3 102 -4 3 -2 13 3 22 5 10 5 23 1 30
-5 7 -5 30 -1 51 4 21 4 44 -1 51 -4 7 -4 20 1 30 5 9 7 19 3 22 -5 5 -7 70
-3 90 4 21 2 98 -3 104 -4 3 -2 13 3 23 5 10 7 20 3 24 -5 5 -8 76 -3 91 4 15
2 96 -3 102 -4 3 -2 13 3 22 5 10 5 23 1 30 -5 7 -5 30 -1 51 4 21 4 44 -1 51
-4 7 -4 20 1 29 5 9 5 22 1 28 -8 13 -5 81 3 90 3 2 1 12 -4 22 -7 14 -25 16
-109 16 -61 -1 -101 3 -101 9 0 7 -3 7 -8 0 -4 -5 -50 -10 -102 -10 -52 0 -98
5 -102 10 -5 7 -8 7 -8 0 0 -6 -42 -10 -110 -10 -60 0 -110 4 -110 8 0 5 -6 5
-12 0 -20 -11 -348 -10 -348 2 0 7 -3 7 -8 0 -8 -11 -147 -13 -158 -3 -4 4
-15 3 -25 -3 -14 -7 -19 -6 -19 3 0 8 -3 9 -8 3 -8 -12 -140 -13 -158 -2 -6 3
-14 3 -18 0 -11 -11 -130 -10 -138 2 -5 7 -8 7 -8 -1 0 -9 -132 -12 -165 -4
-5 1 -14 1 -20 0 -34 -8 -285 -4 -285 5 0 6 -3 6 -8 0 -8 -12 -222 -14 -222
-2 0 5 -6 5 -12 0 -20 -11 -398 -10 -398 2 0 6 -3 6 -8 0 -8 -12 -141 -13
-159 -2 -6 4 -14 4 -16 -1z"/>
<path d="M7049 3852 c-23 -3 -25 -6 -23 -52 2 -27 -1 -52 -7 -55 -5 -4 -9 -12
-9 -18 0 -7 4 -6 10 3 6 9 8 -5 8 -43 -1 -32 -5 -60 -10 -63 -4 -3 -8 -11 -8
-17 0 -7 4 -6 10 3 6 9 8 -5 8 -43 -1 -32 -5 -60 -10 -63 -4 -3 -8 -11 -8 -17
0 -7 4 -6 10 3 6 9 8 -5 8 -43 -1 -32 -5 -60 -10 -63 -4 -3 -8 -11 -8 -17 0
-7 4 -6 10 3 7 10 9 -2 8 -40 -1 -30 -6 -61 -12 -69 -7 -10 -7 -13 -1 -9 7 4
11 -19 12 -68 0 -53 -2 -72 -11 -67 -8 5 -8 3 0 -8 15 -19 17 -162 2 -153 -7
5 -8 2 -2 -7 14 -22 15 -161 1 -152 -9 5 -9 3 -1 -8 15 -20 16 -162 1 -152 -7
4 -6 0 2 -10 7 -9 11 -26 8 -37 -3 -11 0 -23 6 -27 7 -5 686 -8 1510 -8 l1497
-1 1 96 c2 415 0 1193 -5 1197 -5 6 -2940 10 -2987 5z"/>
<path d="M12950 3850 l-45 -5 1 -635 c1 -349 2 -640 3 -645 1 -7 483 -11 1506
-10 l1505 0 1 45 c1 25 0 50 -1 55 -1 6 -2 16 -1 23 2 17 2 31 0 77 0 22 0 43
1 48 4 21 2 98 -3 104 -4 3 -2 13 3 23 5 10 7 20 3 24 -5 5 -8 76 -3 91 4 15
2 96 -3 102 -4 3 -2 13 3 22 5 10 5 23 1 30 -5 7 -5 30 -1 51 4 21 4 44 -1 51
-4 7 -4 20 1 30 5 9 7 19 3 22 -5 5 -7 70 -3 90 4 21 2 98 -3 104 -4 3 -2 13
3 23 5 10 7 20 3 24 -5 5 -7 72 -3 94 1 4 1 30 0 57 0 28 -1 62 0 78 0 15 -5
27 -12 28 -72 3 -2925 3 -2958 -1z"/>
<path d="M7057 1652 c-2 -4 -3 -364 -3 -800 1 -524 -2 -792 -9 -793 -5 -1 -13
-1 -17 0 -4 0 -28 2 -52 3 -25 0 -43 5 -39 11 3 5 -5 4 -17 -3 -12 -7 -25 -8
-29 -4 -3 5 -28 9 -56 10 -101 1 -328 15 -337 20 -5 3 -43 7 -86 9 -42 2 -77
4 -77 5 0 6 -46 5 -56 0 -6 -4 -12 -30 -12 -59 l-2 -51 2198 0 c1750 0 2197 3
2198 13 2 24 -3 92 -7 96 -2 2 -32 6 -66 8 -77 5 -143 11 -143 13 0 3 -145 15
-290 24 -137 9 -148 12 -135 36 6 10 6 21 1 24 -13 8 -11 116 3 116 7 0 8 3 1
8 -13 8 -15 222 -3 222 4 0 8 5 8 11 0 5 -4 8 -8 5 -5 -3 -9 10 -10 29 -1 22
3 35 11 35 8 0 9 3 1 8 -15 10 -15 272 0 272 8 0 8 3 1 8 -13 8 -15 112 -3
112 4 0 8 5 8 11 0 5 -4 8 -8 5 -5 -3 -9 10 -10 29 -1 22 3 35 11 35 8 0 8 3
1 8 -14 10 -15 155 0 164 7 5 7 8 0 8 -12 0 -13 178 -1 197 4 6 3 14 -2 17
-11 7 -11 55 1 62 5 3 5 11 -2 19 -6 7 -10 17 -9 21 1 5 1 16 0 25 -1 15 -126
16 -1476 17 -811 0 -1476 -2 -1478 -6z"/>
<path d="M12961 1641 c-7 -12 -6 -22 1 -29 9 -9 9 -12 0 -12 -10 0 -10 -5 -2
-20 8 -14 8 -20 0 -20 -8 0 -8 -6 0 -20 6 -11 7 -20 2 -20 -10 0 -9 -36 0 -46
4 -3 3 -16 -1 -28 -5 -11 -5 -30 -1 -41 4 -11 3 -28 -2 -37 -5 -12 -5 -18 1
-18 7 0 7 -8 1 -24 -5 -15 -5 -27 3 -35 8 -8 8 -11 -1 -11 -10 0 -10 -5 -2
-20 8 -14 8 -20 0 -20 -8 0 -8 -6 0 -20 6 -11 7 -20 2 -20 -10 0 -9 -36 0 -46
4 -3 3 -16 -1 -28 -5 -11 -5 -30 -1 -41 4 -11 3 -28 -2 -37 -5 -12 -5 -18 1
-18 7 0 7 -8 1 -24 -5 -15 -5 -27 3 -35 8 -8 8 -11 -1 -11 -10 0 -10 -5 -2
-20 8 -14 8 -20 0 -20 -8 0 -8 -6 0 -20 6 -11 7 -20 2 -20 -10 0 -9 -36 0 -46
4 -3 3 -16 -1 -28 -5 -11 -5 -30 -1 -41 4 -11 3 -28 -2 -37 -5 -12 -5 -18 1
-18 7 0 7 -8 1 -24 -5 -15 -5 -27 3 -35 8 -8 8 -11 -1 -11 -10 0 -10 -5 -2
-20 8 -14 8 -20 0 -20 -8 0 -8 -6 0 -20 6 -11 7 -20 2 -20 -10 0 -9 -36 0 -46
4 -3 3 -16 -1 -28 -5 -11 -5 -30 -1 -41 4 -11 3 -28 -2 -38 -5 -11 -5 -17 1
-17 7 0 7 -8 1 -24 -5 -15 -5 -27 3 -35 8 -8 8 -11 -1 -11 -10 0 -10 -5 -2
-20 8 -14 8 -20 0 -20 -8 0 -8 -6 0 -20 7 -12 7 -20 1 -20 -9 0 -7 -38 3 -48
3 -2 1 -13 -5 -23 -6 -13 -6 -19 0 -19 7 0 7 -9 1 -26 -6 -14 -6 -23 -2 -20 5
3 7 -7 4 -22 -4 -27 -5 -28 -65 -24 -34 2 -65 9 -69 16 -6 8 -8 7 -8 -2 0 -7
-3 -11 -7 -9 -5 3 -53 8 -108 11 -55 4 -138 9 -185 12 -47 3 -100 7 -117 7
-18 1 -33 4 -33 7 0 3 -25 4 -55 3 -31 -1 -53 1 -51 5 3 6 -24 7 -79 3 -5 -1
-10 -26 -11 -56 l-1 -55 2199 0 2198 0 1 33 c1 36 -1 70 -6 75 -3 4 -126 15
-177 16 -16 1 -28 3 -28 6 0 3 -17 4 -37 4 -21 -1 -41 4 -45 10 -6 8 -8 8 -8
-1 0 -8 -9 -9 -29 -3 -16 4 -32 6 -35 3 -3 -3 -12 0 -21 7 -12 10 -15 10 -15
0 0 -8 -7 -10 -17 -5 -10 4 -52 9 -93 11 -147 9 -135 4 -138 55 -1 24 -2 52
-2 62 0 9 0 25 0 35 0 9 0 33 1 52 1 19 1 41 0 48 -1 6 -1 19 -1 27 0 8 0 23
0 33 0 9 0 33 1 52 1 19 1 41 0 48 -1 12 -1 32 -1 55 1 6 -1 33 -2 60 -2 26
-1 47 2 47 7 0 4 89 -3 97 -4 3 -2 13 3 23 5 10 7 20 3 23 -7 8 -10 97 -3 97
7 0 4 89 -3 97 -4 3 -2 13 3 23 5 10 7 20 3 23 -7 8 -10 97 -3 97 7 0 4 89 -3
97 -4 3 -2 13 3 23 5 10 7 20 3 23 -7 8 -10 97 -3 97 7 0 4 89 -3 97 -4 3 -2
13 3 22 5 10 5 23 1 30 -4 7 -6 23 -4 36 l5 23 -1476 1 c-1410 0 -1476 -1
-1485 -18z"/>
</g>
</svg>
