<?xml version="1.0" encoding="UTF-8" standalone="no"?>
<!-- Created with Inkscape (http://www.inkscape.org/) -->

<svg
   xmlns:dc="http://purl.org/dc/elements/1.1/"
   xmlns:cc="http://creativecommons.org/ns#"
   xmlns:rdf="http://www.w3.org/1999/02/22-rdf-syntax-ns#"
   xmlns:svg="http://www.w3.org/2000/svg"
   xmlns="http://www.w3.org/2000/svg"
   xmlns:sodipodi="http://sodipodi.sourceforge.net/DTD/sodipodi-0.dtd"
   xmlns:inkscape="http://www.inkscape.org/namespaces/inkscape"
   width="278.52341mm"
   height="186.08925mm"
   viewBox="0 0 986.89396 659.37135"
   id="svg2"
   version="1.1"
   inkscape:version="0.91 r13725"
   sodipodi:docname="lang.svg">
  <defs
     id="defs4" />
  <sodipodi:namedview
     id="base"
     pagecolor="#ffffff"
     bordercolor="#666666"
     borderopacity="1.0"
     inkscape:pageopacity="0.0"
     inkscape:pageshadow="2"
     inkscape:zoom="0.35"
     inkscape:cx="253.65065"
     inkscape:cy="395.77592"
     inkscape:document-units="px"
     inkscape:current-layer="layer1"
     showgrid="false"
     fit-margin-top="0"
     fit-margin-left="0"
     fit-margin-right="0"
     fit-margin-bottom="0"
     inkscape:window-width="1366"
     inkscape:window-height="655"
     inkscape:window-x="0"
     inkscape:window-y="1"
     inkscape:window-maximized="1" />
  <metadata
     id="metadata7">
    <rdf:RDF>
      <cc:Work
         rdf:about="">
        <dc:format>image/svg+xml</dc:format>
        <dc:type
           rdf:resource="http://purl.org/dc/dcmitype/StillImage" />
        <dc:title></dc:title>
      </cc:Work>
    </rdf:RDF>
  </metadata>
  <g
     inkscape:label="Layer 1"
     inkscape:groupmode="layer"
     id="layer1"
     transform="translate(-34.82028,-333.50506)">
    <g
       id="g4547"
       transform="matrix(1.0948661,0,0,1.0948661,588.65121,333.50506)">
      <path
         id="path4549"
         d="m 370.49,488.359 -6.352,0 c -0.141,-0.237 -0.282,-0.478 -0.423,-0.72 l 0.172,-0.288 -0.522,-0.313 c -3.903,-6.75 -8.364,-15.533 -12.964,-25.457 -7.627,-16.451 -15.647,-36.052 -22.237,-54.844 -3.296,-9.396 -6.233,-18.59 -8.588,-27.082 -2.293,-8.265 -4.028,-15.864 -5.006,-22.324 l 13.807,-22.868 0,-32.221 -27.808,-1.184 c -8.829,-44.962 -15.413,-85 -17.693,-122.323 -0.161,-2.652 -0.299,-5.287 -0.417,-7.908 0.96,-0.348 2.027,-0.869 3.073,-1.652 1.058,-0.792 2.09,-1.857 2.941,-3.251 l 0.221,-0.363 0,-0.426 c 0,0 0,-13.04 0,-17.93 10e-4,-0.559 -0.142,-1.097 -0.371,-1.571 -0.214,-0.445 -0.498,-0.843 -0.827,-1.21 -0.618,-0.687 -1.398,-1.28 -2.312,-1.841 -1.599,-0.978 -3.624,-1.854 -5.932,-2.651 -0.924,-0.318 -1.893,-0.622 -2.896,-0.91 0,-5.867 0,-41.653 0,-46.004 0,-0.104 -0.004,-0.206 -0.01,-0.308 -0.003,-0.032 -0.007,-0.063 -0.01,-0.094 -0.006,-0.07 -0.012,-0.141 -0.021,-0.21 -0.005,-0.036 -0.011,-0.07 -0.017,-0.105 -0.01,-0.066 -0.02,-0.132 -0.033,-0.197 -0.007,-0.035 -0.017,-0.068 -0.025,-0.104 -0.014,-0.065 -0.027,-0.129 -0.045,-0.193 -0.008,-0.034 -0.019,-0.066 -0.029,-0.1 -0.018,-0.064 -0.036,-0.128 -0.057,-0.191 -0.01,-0.035 -0.023,-0.068 -0.035,-0.103 -0.022,-0.061 -0.043,-0.123 -0.065,-0.184 -0.015,-0.037 -0.032,-0.074 -0.047,-0.11 -0.023,-0.057 -0.045,-0.114 -0.071,-0.17 -0.019,-0.045 -0.042,-0.089 -0.062,-0.133 -0.021,-0.044 -0.041,-0.088 -0.063,-0.132 0,-0.002 -0.002,-0.004 -0.003,-0.006 -0.002,-0.004 -0.003,-0.008 -0.005,-0.012 -0.074,-0.143 -0.151,-0.284 -0.235,-0.424 -0.033,-0.055 -0.069,-0.108 -0.104,-0.162 -0.055,-0.09 -0.112,-0.179 -0.173,-0.266 -0.038,-0.056 -0.079,-0.111 -0.119,-0.167 -0.063,-0.087 -0.127,-0.174 -0.194,-0.258 -0.04,-0.051 -0.08,-0.102 -0.123,-0.152 -0.071,-0.088 -0.145,-0.175 -0.22,-0.261 -0.024,-0.028 -0.046,-0.056 -0.07,-0.083 -0.021,-0.023 -0.044,-0.047 -0.066,-0.07 -0.059,-0.065 -0.12,-0.13 -0.182,-0.194 -0.055,-0.058 -0.11,-0.116 -0.167,-0.174 -0.057,-0.057 -0.115,-0.113 -0.174,-0.169 -0.068,-0.065 -0.137,-0.131 -0.206,-0.195 -0.053,-0.049 -0.107,-0.097 -0.161,-0.146 -0.073,-0.065 -0.147,-0.131 -0.223,-0.195 -0.021,-0.019 -0.043,-0.039 -0.065,-0.057 -0.039,-0.033 -0.078,-0.064 -0.118,-0.096 -0.076,-0.063 -0.151,-0.125 -0.229,-0.187 -0.06,-0.049 -0.122,-0.096 -0.184,-0.144 -0.081,-0.062 -0.161,-0.124 -0.243,-0.184 -0.067,-0.05 -0.137,-0.1 -0.206,-0.151 -0.078,-0.057 -0.155,-0.112 -0.235,-0.167 -0.078,-0.054 -0.157,-0.108 -0.235,-0.161 -0.077,-0.051 -0.152,-0.102 -0.23,-0.153 -0.079,-0.051 -0.158,-0.102 -0.239,-0.153 -0.056,-0.036 -0.111,-0.072 -0.168,-0.108 -0.02,-0.013 -0.043,-0.025 -0.063,-0.037 -0.214,-0.133 -0.434,-0.263 -0.658,-0.391 -0.045,-0.026 -0.091,-0.051 -0.136,-0.076 -0.008,-0.005 -0.016,-0.009 -0.025,-0.014 0,-5.928 0,-27.687 0,-30.481 0,-0.118 -0.008,-0.235 -0.02,-0.351 -10e-4,-0.018 -0.003,-0.037 -0.005,-0.056 -0.013,-0.115 -0.031,-0.229 -0.054,-0.34 -0.002,-0.008 -0.003,-0.015 -0.004,-0.023 -0.025,-0.11 -0.052,-0.217 -0.084,-0.323 -0.004,-0.01 -0.007,-0.021 -0.01,-0.033 -0.035,-0.109 -0.072,-0.217 -0.114,-0.323 -0.002,-0.003 -0.003,-0.007 -0.005,-0.011 -0.003,-0.007 -0.006,-0.014 -0.009,-0.021 -0.045,-0.112 -0.094,-0.222 -0.148,-0.329 -0.02,-0.037 -0.041,-0.073 -0.06,-0.11 -0.032,-0.059 -0.063,-0.117 -0.097,-0.175 -0.028,-0.047 -0.056,-0.094 -0.085,-0.14 -0.039,-0.063 -0.078,-0.122 -0.118,-0.183 -0.028,-0.041 -0.054,-0.081 -0.083,-0.12 -0.054,-0.076 -0.109,-0.15 -0.167,-0.224 -0.036,-0.045 -0.071,-0.09 -0.107,-0.135 -0.055,-0.067 -0.11,-0.133 -0.169,-0.198 -0.012,-0.014 -0.022,-0.029 -0.035,-0.043 -0.041,-0.044 -0.083,-0.087 -0.125,-0.131 -0.022,-0.025 -0.044,-0.049 -0.067,-0.073 -0.051,-0.053 -0.104,-0.106 -0.157,-0.159 -0.018,-0.018 -0.036,-0.036 -0.053,-0.055 -0.01,-0.009 -0.021,-0.017 -0.03,-0.026 -0.228,-0.219 -0.472,-0.432 -0.73,-0.636 -0.014,-0.011 -0.028,-0.022 -0.041,-0.033 -0.114,-0.088 -0.229,-0.176 -0.348,-0.262 -0.027,-0.02 -0.054,-0.04 -0.082,-0.06 -0.134,-0.096 -0.271,-0.191 -0.411,-0.283 -0.003,-0.002 -0.006,-0.004 -0.009,-0.006 -0.107,-0.071 -0.216,-0.141 -0.328,-0.211 -0.024,-0.015 -0.049,-0.029 -0.073,-0.044 -0.09,-0.054 -0.18,-0.107 -0.272,-0.16 -0.082,-0.048 -0.162,-0.096 -0.245,-0.143 -0.087,-0.049 -0.177,-0.096 -0.265,-0.144 -0.092,-0.049 -0.184,-0.1 -0.278,-0.148 -0.151,-0.078 -0.304,-0.153 -0.459,-0.228 -0.111,-0.053 -0.225,-0.106 -0.337,-0.156 -0.103,-0.047 -0.206,-0.095 -0.31,-0.141 -0.1,-0.043 -0.2,-0.084 -0.3,-0.126 -0.1,-0.041 -0.2,-0.084 -0.301,-0.123 -0.097,-0.039 -0.197,-0.076 -0.296,-0.113 -0.108,-0.042 -0.217,-0.083 -0.328,-0.122 -0.095,-0.035 -0.192,-0.069 -0.288,-0.102 -0.116,-0.04 -0.233,-0.08 -0.35,-0.118 -0.097,-0.032 -0.196,-0.063 -0.295,-0.094 -0.114,-0.036 -0.23,-0.07 -0.345,-0.104 -0.059,-0.017 -0.116,-0.036 -0.174,-0.052 -0.014,-0.004 -0.029,-0.008 -0.043,-0.011 0,-2.591 0,-7.885 0,-13.921 0,-5.444 0,-11.492 0,-16.705 0,-7.019 0,-12.525 0,-13.01 0,-0.364 -0.074,-0.704 -0.185,-1.012 -0.199,-0.538 -0.509,-0.982 -0.873,-1.372 -0.549,-0.583 -1.233,-1.052 -2.009,-1.4 -0.751,-0.333 -1.592,-0.549 -2.486,-0.565 l 0,-0.003 -0.089,0 0,0.005 c -0.674,0.011 -1.319,0.135 -1.915,0.339 -0.937,0.323 -1.762,0.822 -2.419,1.46 -0.328,0.321 -0.615,0.68 -0.837,1.097 -0.11,0.209 -0.204,0.433 -0.273,0.676 -0.067,0.242 -0.107,0.502 -0.107,0.775 0,0.485 0,5.991 0,13.01 0,5.214 0,11.261 0,16.705 0,5.944 0,11.166 0,13.799 -1.149,0.297 -2.244,0.674 -3.25,1.117 -1.605,0.707 -2.993,1.564 -4.051,2.557 -0.529,0.5 -0.979,1.036 -1.316,1.638 -0.169,0.301 -0.308,0.619 -0.406,0.955 -0.099,0.337 -0.155,0.693 -0.155,1.057 0,2.794 0,24.557 0,30.483 -1.358,0.759 -2.55,1.599 -3.521,2.512 -0.735,0.692 -1.347,1.428 -1.796,2.229 -0.222,0.401 -0.405,0.818 -0.533,1.253 -0.127,0.435 -0.199,0.889 -0.199,1.35 0,4.352 0,40.139 0,46.004 -1.02,0.293 -2.006,0.603 -2.944,0.927 -1.265,0.437 -2.443,0.9 -3.512,1.389 -1.604,0.736 -2.96,1.517 -4.003,2.42 -0.521,0.454 -0.97,0.942 -1.311,1.509 -0.169,0.283 -0.311,0.587 -0.41,0.913 -0.101,0.325 -0.157,0.672 -0.157,1.025 0,4.89 0,17.93 0,17.93 l 0,0.426 0.221,0.363 c 0.85,1.394 1.882,2.459 2.941,3.251 1.047,0.784 2.113,1.304 3.074,1.652 -0.118,2.621 -0.256,5.256 -0.419,7.908 -2.289,37.476 -8.854,77.313 -17.691,122.324 l -27.809,1.184 0,32.221 13.807,22.869 c -1.313,8.673 -3.994,19.4 -7.546,31.032 -5.437,17.81 -12.909,37.752 -20.595,55.863 -3.843,9.055 -7.74,17.654 -11.463,25.299 -3.548,7.291 -6.939,13.714 -9.964,18.833 l -5.889,0 -9.821,23.641 39.585,0 9.029,0 4.476,-23.641 -7.008,0 c 1.501,-3.815 4.995,-12.449 9.349,-21.65 l 0.157,0 0.002,-0.335 c 0.474,-0.998 0.957,-2.003 1.449,-3.007 3.225,-6.586 6.82,-13.202 10.337,-18.283 1.756,-2.539 3.494,-4.694 5.115,-6.253 0.808,-0.779 1.586,-1.408 2.307,-1.867 0.721,-0.46 1.378,-0.745 1.941,-0.872 1.647,-0.376 3.169,-0.549 4.575,-0.549 2.468,10e-4 4.579,0.525 6.449,1.462 1.635,0.821 3.091,1.966 4.398,3.396 2.287,2.499 4.103,5.881 5.499,9.752 1.654,4.577 2.717,9.821 3.393,15.016 l -0.224,0.326 0.309,0.348 c 0.144,1.164 0.27,2.324 0.378,3.471 0.61,6.488 0.687,12.59 0.687,16.909 0,0.772 -0.003,1.486 -0.005,2.138 l -4.338,0 0,23.639 26.226,0 1.518,0 24.709,0 0,-23.641 -4.339,0 c -0.002,-0.652 -0.005,-1.366 -0.005,-2.138 0,-3.76 0.058,-8.872 0.477,-14.415 0.136,-1.798 0.312,-3.641 0.533,-5.496 l 0.727,-0.817 -0.525,-0.767 c 0.255,-1.913 0.562,-3.829 0.937,-5.715 0.63,-3.18 1.443,-6.269 2.481,-9.097 0.779,-2.121 1.684,-4.093 2.726,-5.847 0.783,-1.317 1.642,-2.509 2.581,-3.553 1.41,-1.568 2.992,-2.802 4.79,-3.651 1.798,-0.848 3.819,-1.321 6.161,-1.322 1.407,0 2.927,0.173 4.576,0.549 0.573,0.129 1.242,0.422 1.975,0.895 0.688,0.442 1.428,1.038 2.197,1.772 1.443,1.375 2.983,3.227 4.544,5.407 2.735,3.816 5.542,8.632 8.194,13.693 3.982,7.593 7.624,15.743 10.264,21.986 1.321,3.122 2.392,5.768 3.133,7.631 0.127,0.319 0.243,0.612 0.35,0.884 l -6.545,0 4.476,23.642 9.03,0 39.584,0 -9.827,-23.641 z m -31.906,0 5.685,-9.998 16.195,9.717 c 0.055,0.094 0.108,0.189 0.161,0.282 l -11.356,0 -10.685,0 z m 6.865,-12.071 4.663,-8.199 c 0.447,0.935 0.892,1.857 1.334,2.766 2.309,4.743 4.553,9.126 6.685,13.043 l -12.682,-7.61 z m 2.766,-9.688 -4.812,8.461 -13.956,-8.373 18.768,-0.088 z m -19.93,-2.292 3.105,-9.99 14.951,9.907 -18.056,0.083 z m 18.947,-2.352 -15.105,-10.01 4.493,-14.458 c 1.092,2.67 2.192,5.317 3.299,7.924 2.436,5.737 4.891,11.291 7.313,16.544 z m -37.676,-25.225 c -0.818,-0.796 -1.638,-1.489 -2.47,-2.061 l 27.64,-0.15 0.267,0.174 -4.936,15.882 -19.757,-13.094 c -0.249,-0.26 -0.496,-0.51 -0.744,-0.751 z m -24.104,1.621 c -0.112,0.124 -0.221,0.251 -0.332,0.377 l -14.918,13.356 -11.748,-17.152 31.409,-0.171 c -1.647,0.953 -3.115,2.172 -4.411,3.59 z m -82.508,-2.507 -21.198,14.423 -4.84,-15.574 0.265,-0.174 27.284,0.148 c -0.509,0.348 -1.011,0.742 -1.511,1.177 z m 29.71,-264.305 0.08,0 8.865,-0.937 -5.71,11.052 -3.86,-9.058 c 0.018,-0.363 0.036,-0.727 0.052,-1.089 0.329,0.031 0.533,0.032 0.573,0.032 z m 20.785,-154.148 0.003,-0.008 c 0.017,-0.049 0.095,-0.187 0.244,-0.342 0.221,-0.235 0.592,-0.503 1.016,-0.691 0.419,-0.188 0.883,-0.3 1.3,-0.305 0.32,0.006 0.667,0.071 0.999,0.187 0.51,0.175 0.982,0.477 1.264,0.756 0.14,0.138 0.231,0.267 0.27,0.344 0.016,0.031 0.023,0.049 0.027,0.059 0,4.027 0,8.548 0,12.905 -0.758,-0.342 -1.612,-0.565 -2.517,-0.58 l 0,-0.002 -0.089,0 0,0.002 c -0.688,0.011 -1.347,0.143 -1.956,0.355 -0.192,0.068 -0.379,0.145 -0.561,0.227 0,-4.356 0,-8.879 0,-12.907 z m 8.709,33.965 c 0.055,0.021 0.109,0.041 0.164,0.062 l -0.294,0.49 -0.339,-0.717 c 0.053,0.018 0.108,0.034 0.16,0.053 0.105,0.036 0.206,0.074 0.309,0.112 z m 2.667,1.257 c 0.092,0.056 0.184,0.112 0.272,0.168 0.053,0.034 0.104,0.068 0.155,0.102 0.081,0.053 0.159,0.106 0.236,0.159 0.05,0.037 0.099,0.072 0.149,0.108 0.072,0.054 0.144,0.107 0.211,0.161 0.044,0.034 0.086,0.068 0.129,0.102 0.069,0.058 0.139,0.115 0.204,0.173 0.034,0.03 0.067,0.06 0.1,0.09 0.062,0.057 0.12,0.112 0.177,0.168 0.032,0.031 0.062,0.061 0.092,0.09 0.054,0.058 0.105,0.114 0.154,0.169 0.022,0.027 0.047,0.053 0.069,0.08 0.045,0.054 0.086,0.106 0.126,0.158 0.018,0.026 0.04,0.052 0.057,0.076 0.038,0.052 0.068,0.101 0.099,0.15 0.012,0.021 0.027,0.043 0.039,0.063 0.029,0.05 0.052,0.097 0.073,0.142 0.007,0.014 0.016,0.03 0.022,0.044 0.022,0.053 0.041,0.101 0.055,0.144 0,0.004 0.002,0.008 0.003,0.011 0.03,0.096 0.038,0.166 0.038,0.22 l 0,7.858 -4.367,-9.252 1.005,-1.68 c 0.101,0.051 0.201,0.101 0.299,0.154 0.047,0.025 0.092,0.051 0.139,0.076 0.106,0.059 0.212,0.118 0.314,0.178 0.052,0.028 0.101,0.058 0.15,0.088 z m 5.547,36.661 c 0.02,0.015 0.041,0.029 0.059,0.043 0.154,0.109 0.302,0.217 0.444,0.327 0.009,0.007 0.019,0.014 0.03,0.022 0.289,0.223 0.553,0.447 0.794,0.669 0.016,0.015 0.033,0.03 0.049,0.045 0.092,0.086 0.177,0.172 0.26,0.257 l -6.049,7.604 -7.277,-12.237 c -0.245,-0.411 -0.777,-0.547 -1.188,-0.302 -0.044,0.026 -0.084,0.058 -0.12,0.09 l 0,-0.743 c 0.041,0.002 0.082,0.004 0.124,0.007 0.097,0.007 0.193,0.016 0.289,0.023 0.184,0.014 0.367,0.028 0.551,0.046 0.049,0.005 0.099,0.012 0.149,0.017 1.331,0.139 2.647,0.373 3.911,0.687 0.249,0.062 0.494,0.127 0.739,0.193 0.041,0.012 0.082,0.023 0.122,0.035 0.2,0.056 0.398,0.114 0.596,0.174 0.051,0.015 0.1,0.031 0.151,0.046 0.226,0.07 0.451,0.142 0.672,0.217 0.004,0.002 0.01,0.003 0.014,0.005 0.234,0.079 0.464,0.161 0.692,0.245 0.039,0.014 0.078,0.029 0.118,0.044 0.18,0.068 0.36,0.137 0.538,0.208 0.055,0.022 0.109,0.043 0.162,0.065 0.18,0.072 0.355,0.146 0.531,0.222 0.035,0.015 0.069,0.03 0.105,0.044 0.205,0.091 0.407,0.182 0.606,0.276 0.019,0.009 0.038,0.017 0.058,0.027 0.2,0.095 0.396,0.191 0.588,0.288 0.018,0.009 0.037,0.019 0.055,0.028 0.192,0.098 0.38,0.199 0.564,0.299 0.029,0.015 0.056,0.032 0.085,0.047 0.159,0.089 0.314,0.178 0.467,0.269 0.029,0.016 0.057,0.033 0.084,0.049 0.165,0.098 0.325,0.198 0.48,0.299 0.029,0.019 0.058,0.037 0.088,0.056 0.159,0.103 0.311,0.206 0.459,0.309 z m -16.033,-21.277 0,12.394 -3.605,-6.027 3.605,-6.367 z m -4.628,4.656 -3.875,-6.477 8.249,-1.249 -4.374,7.726 z m 8.192,-22.326 c 0.053,0.007 0.105,0.013 0.158,0.019 0.162,0.021 0.323,0.044 0.485,0.07 0.008,10e-4 0.016,0.002 0.025,0.004 0.167,0.026 0.335,0.056 0.5,0.087 0.062,0.011 0.124,0.025 0.186,0.037 0.077,0.015 0.155,0.031 0.233,0.048 l 1.468,3.109 -3.583,5.991 0,-9.42 c 0.056,0.005 0.112,0.011 0.169,0.016 0.12,0.01 0.238,0.025 0.359,0.039 z m 8.006,33.383 c -0.173,-0.06 -0.349,-0.12 -0.526,-0.177 -0.128,-0.042 -0.254,-0.083 -0.383,-0.124 -0.176,-0.055 -0.353,-0.108 -0.531,-0.16 -0.096,-0.029 -0.191,-0.059 -0.288,-0.087 -0.037,-0.01 -0.074,-0.019 -0.108,-0.03 -0.201,-0.056 -0.404,-0.109 -0.607,-0.161 -0.108,-0.029 -0.215,-0.058 -0.323,-0.085 -0.005,-0.002 -0.01,-0.003 -0.014,-0.004 -0.3,-0.075 -0.602,-0.144 -0.906,-0.21 -0.124,-0.027 -0.249,-0.051 -0.374,-0.076 -0.196,-0.04 -0.394,-0.081 -0.592,-0.117 -0.143,-0.026 -0.286,-0.05 -0.429,-0.075 -0.184,-0.032 -0.369,-0.062 -0.555,-0.091 -0.147,-0.022 -0.292,-0.043 -0.439,-0.063 -0.189,-0.026 -0.378,-0.05 -0.566,-0.074 -0.144,-0.017 -0.286,-0.034 -0.43,-0.049 -0.088,-0.009 -0.173,-0.019 -0.261,-0.028 l 3.591,-6.002 4.455,7.869 c -0.114,-0.043 -0.229,-0.085 -0.344,-0.127 -0.123,-0.042 -0.245,-0.086 -0.37,-0.129 z m 7.27,8.585 c 0.006,0.013 0.01,0.025 0.016,0.038 0.027,0.073 0.05,0.143 0.069,0.212 0.016,0.058 0.027,0.112 0.037,0.165 0.005,0.028 0.013,0.058 0.017,0.085 0.011,0.078 0.017,0.152 0.017,0.221 0,1.832 0,9.232 0,17.627 l -6.427,-10.808 6.173,-7.76 c 0.037,0.075 0.071,0.149 0.098,0.22 z m -15.805,43.639 0,-22.954 7.384,12.34 -7.071,10.625 c -0.105,-0.004 -0.209,-0.007 -0.313,-0.011 z m 1.329,-24.11 14.117,1.344 0.011,0.02 -7.009,10.533 -7.119,-11.897 z m 13.018,-0.502 -12.969,-1.235 7,-8.801 5.969,10.036 z m -14.347,-2.287 0,-21.84 7.431,12.497 -7.431,9.343 z m 3.809,-34.671 -3.809,6.37 0,-13.099 3.809,6.729 z m -3.352,-9.438 8.249,1.25 -3.873,6.477 -4.376,-7.727 z m 5.359,9.462 4.095,-6.846 0,14.077 -4.095,-7.231 z m -5.816,-11.285 0,-0.056 c 0.02,-0.028 0.044,-0.054 0.061,-0.084 l 4.411,-7.375 4.165,8.823 -8.637,-1.308 z m -1.788,-12.903 0,0 0,0 0,0 z m -2.262,31.872 c -1.682,0.143 -3.334,0.423 -4.916,0.816 -1.041,0.258 -2.05,0.566 -3.019,0.912 l 4.363,-7.701 3.572,5.973 z m 1.015,26.706 -7.227,-9.085 7.227,-12.153 0,21.238 z m -1.174,1.309 -12.968,1.235 5.968,-10.036 7,8.801 z m -14.066,3.081 14.116,-1.344 -7.12,11.897 -7.008,-10.533 0.012,-0.02 z m 15.24,0.154 0,22.584 -0.078,0 0,0.027 c -0.012,0.001 -0.025,0.001 -0.037,0.002 l -7.063,-10.615 7.178,-11.998 z m 11.405,13.645 6.59,11.013 c -1.553,-0.356 -3.146,-0.675 -4.74,-0.95 -2.68,-0.46 -5.367,-0.796 -7.897,-0.976 l 6.047,-9.087 z m 1.064,-1.598 6.527,-9.809 c 0,8.054 0,16.209 0,20.717 l -6.527,-10.908 z m -13.359,-91.272 0.003,-0.008 c 0.017,-0.049 0.095,-0.187 0.244,-0.342 0.221,-0.236 0.592,-0.504 1.016,-0.691 0.419,-0.188 0.883,-0.299 1.3,-0.305 0.32,0.006 0.667,0.07 0.999,0.187 0.51,0.174 0.982,0.477 1.264,0.757 0.14,0.138 0.231,0.267 0.27,0.343 0.016,0.03 0.023,0.049 0.027,0.059 0,5.567 0,10.499 0,13.256 -0.161,-0.022 -0.324,-0.042 -0.485,-0.06 -0.018,-0.003 -0.037,-0.005 -0.055,-0.007 -0.227,-0.025 -0.453,-0.046 -0.682,-0.064 -0.049,-0.004 -0.098,-0.007 -0.147,-0.011 -0.196,-0.014 -0.392,-0.025 -0.588,-0.033 -0.038,-0.002 -0.076,-0.004 -0.112,-0.006 -0.213,-0.008 -0.426,-0.014 -0.639,-0.015 l -0.086,0 c -0.081,0 -0.156,0.002 -0.231,0.004 -0.704,0.009 -1.406,0.055 -2.098,0.134 0,-2.766 0,-7.669 0,-13.198 z m -3.56,17.811 -0.36,-0.603 c 0.249,-0.09 0.505,-0.174 0.766,-0.255 l -0.406,0.858 z m 2.576,-1.396 c 0.616,-0.115 1.243,-0.201 1.873,-0.254 l 0,9.09 -3.378,-5.648 1.505,-3.188 z m 1.874,12.213 0,0.409 -8.431,1.277 4.162,-8.823 4.269,7.137 z m -10.069,4.211 4.457,7.452 -4.457,7.87 c 0,-4.062 0,-10.007 0,-15.322 z m 3.934,19.146 c 1.943,-0.553 4.034,-0.921 6.135,-1.04 l 0,0.621 c -0.397,-0.182 -0.876,-0.044 -1.104,0.341 l -7.276,12.237 -6.208,-7.804 c 0.584,-0.557 1.33,-1.128 2.205,-1.672 1.694,-1.053 3.862,-2.006 6.248,-2.683 z M 245,99.836 l -6.789,11.416 c 0,-8.642 0,-16.358 0,-18.234 0,-0.261 0.072,-0.583 0.268,-0.974 0.039,-0.077 0.084,-0.158 0.133,-0.239 L 245,99.836 Z m -6.788,15.183 6.889,10.351 -6.889,11.512 c 0,-4.447 0,-13.26 0,-21.863 z m 7.952,11.949 6.031,9.064 c -2.115,0.139 -4.346,0.389 -6.597,0.733 -2,0.305 -4.012,0.683 -5.968,1.121 l 6.534,-10.918 z m 50.732,171.113 -8.342,-11.031 4.596,-8.706 c 1.194,6.477 2.444,13.053 3.746,19.737 z m -69.567,-75.165 10.55,-1.314 -0.018,0.217 -6.856,10.661 -3.762,-8.913 c 0.028,-0.217 0.057,-0.434 0.086,-0.651 z m 2.908,-25.488 9.287,-0.891 -5.618,9.935 -3.738,-8.337 c 0.023,-0.236 0.047,-0.473 0.069,-0.707 z m 51.195,1.365 -3.44,7.678 -5.62,-9.935 8.925,0.856 c 0.046,0.467 0.091,0.934 0.135,1.401 z m 2.954,25.413 -3.493,8.273 -6.857,-10.66 -0.018,-0.218 10.189,1.269 c 0.059,0.445 0.12,0.891 0.179,1.336 z m 8.259,51.38 -5.245,9.936 -9.16,-12.112 14.316,1.69 c 0.031,0.163 0.059,0.324 0.089,0.486 z m -35.359,-105.525 0.366,-0.616 c 0.026,-0.044 0.047,-0.089 0.063,-0.135 l 10.54,1.116 0.002,0.003 c -0.018,0.027 -0.038,0.051 -0.055,0.08 l -0.564,0.971 0.004,-0.005 -5.061,8.572 -5.296,-8.887 0,-1.099 z M 237.862,247.4 c -0.002,-0.002 -0.004,-0.003 -0.005,-0.005 -0.011,-0.012 -0.022,-0.023 -0.034,-0.035 l 0.357,-0.537 16.07,-1.324 0,0.677 -8.241,10.899 -8.147,-9.675 z m 36.211,-0.039 c -0.01,0.011 -0.022,0.022 -0.033,0.035 -0.002,0.002 -0.004,0.003 -0.006,0.005 l -8.146,9.675 -8.603,-11.377 0,-0.23 16.43,1.355 0.358,0.537 z m -16.179,21.901 7.922,-9.407 8.588,11.357 -16.51,-1.95 z m 17.429,3.803 -7.248,11.227 -9.969,-13.26 17.217,2.033 z m -18.037,-5.773 0,-18.719 7.457,9.862 -7.457,8.857 z m 0.354,-47.729 13.449,1.674 -6.251,9.13 -7.198,-10.804 z m 6.141,12.347 -6.496,9.487 0,-19.238 6.496,9.751 z m -6.415,-14.128 6.101,-9.191 6.956,10.816 -13.057,-1.625 z m -0.08,-3.014 0,-15.788 5.158,8.019 -5.158,7.769 z m 0,-18.994 0,-0.685 12.28,1.178 -6.075,9.154 -6.205,-9.647 z m 0,-2.427 0,-0.916 5.305,-8.985 6.58,11.041 -11.885,-1.14 z m -3.035,20.876 -4.795,-7.225 4.795,-7.457 0,14.682 z m 0,3.136 0,0.457 -12.777,1.591 6.957,-10.816 5.82,8.768 z m 0,2.205 0,0.01 -7.19,10.794 -6.252,-9.13 13.442,-1.674 z m 0,3.137 0,18.168 -6.134,-8.959 6.134,-9.209 z m 0,26.351 0,17.811 -7.096,-8.428 7.096,-9.383 z m 12.821,36.793 -8.663,13.42 -1.124,-0.048 0,-26.389 9.787,13.017 z m 1.112,1.477 9.598,12.767 -17.363,-0.739 7.765,-12.028 z m 1.001,-1.552 7.244,-11.22 2.344,23.973 -9.588,-12.753 z m -2.224,-27.277 7.074,-8.402 1.995,20.396 -9.069,-11.994 z m -9.199,-14.724 7.055,-10.304 7.673,11.517 -14.728,-1.213 z m 8.112,-11.846 6.478,-9.461 1.88,22.007 -8.358,-12.546 z m -1.36,-24.91 5.774,-8.699 1.741,20.385 -7.515,-11.686 z m -0.92,-25.269 4.715,-7.987 1.471,18.365 -6.186,-10.378 z m -2.016,0.005 -4.292,7.271 0,-14.474 4.292,7.203 z m -7.327,14.587 -5.844,9.085 -6.076,-9.154 11.92,-1.144 0,1.213 z m -6.867,10.678 -7.517,11.686 1.742,-20.385 5.775,8.699 z m -7.837,15.448 6.477,9.461 -8.358,12.546 1.881,-22.007 z m 7.532,11.004 7.055,10.304 -14.727,1.214 7.672,-11.518 z m -9.217,16.626 7.074,8.402 -9.069,11.995 1.995,-20.397 z m 8.22,9.762 7.922,9.407 -16.509,1.949 8.587,-11.356 z m 35.502,40.396 6.077,-11.508 9.193,12.158 -15.27,-0.65 z m -1.065,-1.697 -2.164,-22.116 8.15,10.778 -5.986,11.338 z m -2.349,-26.897 4.971,-10.3 8.433,11.884 -13.404,-1.584 z m -0.559,-2.831 -1.733,-17.705 6.118,8.62 -4.385,9.085 z m -1.58,-20.488 c 0.013,-0.015 0.025,-0.033 0.038,-0.05 0.011,-0.015 0.024,-0.03 0.036,-0.046 0.029,-0.044 0.054,-0.089 0.074,-0.138 0.001,-0.001 0.002,-0.003 0.003,-0.005 l 0.437,-1.036 11.056,0.911 -4.819,9.983 -6.825,-9.619 z m 11.585,-2.108 -10.287,-0.848 3.883,-9.199 6.386,9.928 c 0.006,0.041 0.012,0.08 0.018,0.119 z m -11.667,-2.036 -1.596,-18.676 5.723,8.898 -4.127,9.778 z m 8.027,-23.098 -10.075,-1.255 4.271,-9.529 5.717,10.108 c 0.028,0.225 0.056,0.451 0.087,0.676 z m -10.407,-4.754 -1.427,-16.69 4.969,8.786 -3.542,7.904 z m 7.566,-20.706 -8.836,-0.848 3.861,-9.063 4.943,9.566 c 0.011,0.116 0.021,0.231 0.032,0.345 z m -9.612,-3.45 -1.464,-18.268 5.068,9.809 -3.604,8.459 z m -17.272,-3.776 -3.932,-6.66 3.932,-6.596 0,13.256 z m 0,3.411 0,1.562 -11.524,1.105 6.582,-11.041 4.942,8.374 z m -12.132,0.302 1.471,-18.365 4.715,7.987 -6.186,10.378 z m -1.746,0.062 -3.603,-8.459 5.067,-9.807 -1.464,18.266 z m -0.775,2.604 -8.988,0.863 5.128,-9.925 3.86,9.062 z m 0.157,4.864 -1.426,16.69 -3.543,-7.905 4.969,-8.785 z m -1.758,20.188 -10.393,1.294 6.122,-10.823 4.271,9.529 z m -0.453,5.676 -1.594,18.677 -4.128,-9.778 5.722,-8.899 z m -2.976,19.866 -10.348,0.853 6.465,-10.051 3.883,9.198 z m 0.71,1.681 0.437,1.036 c 0.002,0.002 0.002,0.004 0.004,0.006 0.02,0.047 0.046,0.093 0.074,0.137 0.011,0.016 0.025,0.031 0.036,0.047 0.012,0.016 0.025,0.034 0.039,0.049 l -6.826,9.619 -4.818,-9.983 11.054,-0.911 z m 0.741,4.057 -1.731,17.705 -4.386,-9.085 6.117,-8.62 z m -2.291,20.536 -13.405,1.583 8.433,-11.884 4.972,10.301 z m -0.071,1.754 -9.159,12.113 -5.482,-10.384 14.641,-1.729 z m -0.114,3.027 -2.164,22.117 -5.988,-11.339 8.152,-10.778 z m 1.927,-1.888 7.243,11.22 -9.589,12.753 2.346,-23.973 z m 1.106,-1.484 17.215,-2.033 -9.968,13.26 -7.247,-11.227 z m 17.675,0.243 0,25.779 0,0.129 -0.774,0.033 -8.652,-13.404 9.426,-12.537 z m 29.752,-13.737 4.32,-8.951 c 1.059,6.507 2.192,13.111 3.393,19.821 l -7.713,-10.87 z m -1.973,-25.324 2.814,-6.668 c 0.651,4.715 1.349,9.478 2.091,14.295 l -4.905,-7.627 z m -2.978,-25.901 2.727,-6.084 c 0.461,4.499 0.974,9.039 1.537,13.625 l -4.264,-7.541 z m -2.009,-24.691 2.713,-6.369 c 0.032,0.545 0.059,1.087 0.093,1.634 0.24,3.912 0.528,7.855 0.858,11.827 l -3.664,-7.092 z m 2.413,-12.146 c 0.028,0.616 0.057,1.232 0.088,1.851 l -3.534,8.295 -5.69,-11.012 8.483,0.897 0.08,0 c 0.038,0 0.245,-0.002 0.573,-0.031 z m -25.289,-2.236 c 0.02,0.059 0.045,0.116 0.078,0.172 l 0.006,0.01 0,2.31 -4.935,8.282 -5.06,-8.572 0.002,0.005 -0.564,-0.971 c -0.016,-0.028 -0.036,-0.053 -0.055,-0.079 l 0.023,-0.045 10.505,-1.112 z m -22.48,9.647 c 0.049,-0.797 0.09,-1.589 0.135,-2.383 l 3.033,7.117 -4.095,7.926 c 0.359,-4.249 0.67,-8.47 0.927,-12.66 z m -1.861,22.69 3.018,6.736 -4.721,8.347 c 0.631,-5.078 1.199,-10.104 1.703,-15.083 z m -3.04,25.335 3.083,7.302 -5.375,8.357 c 0.818,-5.28 1.583,-10.499 2.292,-15.659 z m -3.477,23.124 4.587,9.503 -8.194,11.545 c 1.281,-7.135 2.486,-14.147 3.607,-21.048 z m -4.828,27.77 4.863,9.211 -8.829,11.676 c 1.382,-7.084 2.707,-14.044 3.966,-20.887 z m 5.757,10.903 6.067,11.493 -15.249,0.649 9.182,-12.142 z m 19.477,-1.421 7.755,12.014 -17.343,0.738 9.588,-12.752 z m 13.571,14.932 68.059,2.897 0,28.468 -13.192,21.848 -3.436,-0.13 -19.448,-0.737 -0.079,-0.071 0.007,0.069 -31.913,-1.21 0,-0.114 0,-51.02 z m 61.929,86.996 c 1.507,4.935 3.17,10.029 4.946,15.195 l -14.402,-10.801 8.362,-8.051 c 0.355,1.21 0.719,2.428 1.094,3.657 z m -30.752,-31.644 -13.426,9.965 -14.672,-11.029 28.098,1.064 z m -28.11,23.834 14.676,-10.892 14.759,11.094 -29.435,-0.202 z m 28.484,2.58 -13.775,9.346 -15.344,-9.547 29.119,0.201 z m -31.551,-3.274 0,-23.535 15.755,11.843 -15.755,11.692 z m 15.617,14.086 -15.618,10.598 0,-20.316 15.618,9.718 z m 2.215,1.378 15.593,9.703 -30.165,0.185 14.572,-9.888 z m 2.158,-1.465 14.747,-10.006 c 0.608,6.493 1.268,13.531 1.909,20.37 l -16.656,-10.364 z m -0.251,-25.68 12.649,-9.387 c 0.33,3.516 1.041,11.111 1.907,20.327 l -14.556,-10.94 z m -22.774,16.274 0,19.846 -15.257,-10.353 15.257,-9.493 z m -17.415,8.027 -13.775,-9.346 29.119,-0.201 -15.344,9.547 z m 14.514,12.731 -30.164,-0.185 15.592,-9.703 14.572,9.888 z m 9.311,2.383 29.123,-0.178 -13.92,9.942 -15.203,-9.764 z m 13.114,11.257 -16.49,11.778 0,-22.369 16.49,10.591 z m 20.147,-11.46 0.308,-0.002 c 0.824,8.793 1.598,17.057 2.17,23.161 l -18.377,-11.804 15.899,-11.355 z m 2.247,-4.855 c -0.494,-5.268 -0.996,-10.622 -1.474,-15.726 -0.082,-0.858 -0.161,-1.706 -0.24,-2.548 l 11.631,8.723 -9.917,9.551 z m 11.851,-8.101 13.867,10.401 -24.826,0.152 10.959,-10.553 z M 297,384.075 l 19.122,0.132 -8.294,7.988 -10.828,-8.12 z m -1.698,-2.396 8.533,-10.752 12.094,10.894 -20.627,-0.142 z m -1.369,-2.11 c -0.473,-5.034 -0.898,-9.58 -1.24,-13.226 -0.227,-2.418 -0.417,-4.442 -0.557,-5.954 l 9.923,8.939 -8.126,10.241 z m -1.143,-21.799 17.903,0.678 -7.148,9.009 -10.755,-9.687 z m -38.539,22.707 -15.394,-11.425 15.394,-11.572 0,22.997 z m -2.706,0.962 -29.434,0.202 14.758,-11.094 14.676,10.892 z m -31.226,-1.434 c 0.48,-5.119 0.913,-9.742 1.26,-13.44 0.259,-2.763 0.47,-5.013 0.617,-6.57 0.01,-0.11 0.02,-0.215 0.03,-0.317 l 12.649,9.387 -14.556,10.94 z m -1.195,-22.25 -10.771,9.701 -7.16,-9.022 17.931,-0.679 z m 0.639,2.633 c -0.356,3.792 -1.014,10.807 -1.798,19.181 l -8.127,-10.241 9.925,-8.94 z m -3.168,21.291 -20.627,0.142 12.096,-10.894 8.531,10.752 z m 3.28,3.059 14.746,10.006 -16.656,10.364 c 0.539,-5.737 1.088,-11.613 1.612,-17.191 0.101,-1.072 0.199,-2.132 0.298,-3.179 z m -4.74,25.005 c -0.766,8.164 -1.478,15.771 -2.013,21.482 l -12.675,-11.897 14.688,-9.585 z m -16.476,7.906 -10.177,-9.554 24.585,0.151 -14.408,9.403 z m 12.142,14.668 -30.007,-0.163 17.598,-11.485 12.409,11.648 z m 6.867,-24.042 0.309,0.002 15.897,11.355 -18.377,11.804 c 0.571,-6.104 1.347,-14.367 2.171,-23.161 z m 4.445,0.027 29.123,0.178 -15.202,9.765 -13.921,-9.943 z m 32.138,1.075 0,21.879 -16.128,-11.52 16.128,-10.359 z m 21.684,11.746 17.493,11.236 -33.478,0.182 15.985,-11.418 z m 25.16,11.194 12.41,-11.647 17.597,11.484 -30.007,0.163 z m -2.319,-1.092 c -0.536,-5.711 -1.249,-13.318 -2.015,-21.482 l 14.688,9.585 -12.673,11.897 z m 0.056,-22.979 24.585,-0.151 -10.177,9.554 -14.408,-9.403 z m 6.487,-39.191 6.712,-8.458 c 0.965,5.521 2.396,11.685 4.185,18.273 l -10.897,-9.815 z m -53.767,-12.529 -14.692,11.044 -13.444,-9.978 15.915,-0.603 12.221,-0.463 z m -44.974,12.529 -11.375,10.245 c 1.884,-6.901 3.38,-13.341 4.367,-19.077 l 7.008,8.832 z m 8.319,15.02 -10.826,8.12 -8.296,-7.988 19.122,-0.132 z m 2.544,1.071 c -0.548,5.853 -1.136,12.122 -1.714,18.275 l -9.917,-9.551 11.631,-8.724 z m -2.604,20.727 -24.828,-0.152 13.868,-10.401 10.96,10.553 z m -29.004,3.006 10.77,10.111 -19.308,12.601 c 2.991,-7.518 5.874,-15.169 8.538,-22.712 z m 50.13,12.244 15.985,11.418 -33.479,-0.182 17.494,-11.236 z m 16.152,43.503 -16.068,-0.074 6.056,-8.841 10.012,8.915 z m -8.655,-10.899 10.791,-15.754 0,25.362 -10.791,-9.608 z m 9.28,13.286 -7.561,9.15 -8.194,-9.223 15.755,0.073 z m 1.511,1.915 0,17.446 -7.47,-8.408 7.47,-9.038 z m -1.425,19.431 -14.632,0 7.051,-8.533 7.581,8.533 z m 4.46,-1.579 0,-18.29 7.83,9.477 -7.83,8.813 z m 9.367,-6.953 7.051,8.533 -14.631,0 7.58,-8.533 z m -7.496,-12.814 15.756,-0.074 -8.194,9.223 -7.562,-9.149 z m 16.666,-2.462 -16.053,0.074 10,-8.953 6.057,8.844 c -10e-4,0.012 -0.002,0.024 -0.004,0.035 z m -18.537,-0.901 0,-26.205 11.125,16.244 -11.125,9.961 z m 76.827,-32.378 -18.82,-12.282 10.501,-9.857 c 2.602,7.354 5.408,14.808 8.319,22.139 z M 281.554,144.098 c 1.44,0.655 2.582,1.345 3.276,1.951 0.347,0.301 0.578,0.577 0.696,0.778 0.061,0.101 0.096,0.183 0.114,0.243 0.018,0.061 0.022,0.101 0.022,0.135 0,4.351 0,15.158 0,17.484 -0.59,0.876 -1.258,1.54 -1.948,2.058 -1.162,0.873 -2.399,1.32 -3.342,1.543 -0.472,0.111 -0.865,0.166 -1.131,0.192 -0.133,0.013 -0.234,0.02 -0.296,0.023 0,0 -0.004,0 -0.006,0.001 l -21.654,-2.291 0,-27.243 c 2.522,0.082 5.339,0.358 8.194,0.794 2.583,0.394 5.194,0.916 7.65,1.53 1.842,0.46 3.597,0.974 5.181,1.522 1.191,0.41 2.283,0.841 3.244,1.28 z M 253.692,4.026 c 0.225,-0.238 0.601,-0.507 1.029,-0.693 0.414,-0.184 0.872,-0.29 1.285,-0.295 0.311,0.005 0.648,0.066 0.974,0.178 0.513,0.172 0.993,0.476 1.278,0.758 0.143,0.139 0.237,0.27 0.277,0.349 0.017,0.031 0.024,0.05 0.027,0.06 0,0.525 0,4.181 0,9.209 -0.759,-0.341 -1.612,-0.563 -2.517,-0.58 l 0,-0.002 -0.089,0 0,0.003 c -0.688,0.011 -1.347,0.143 -1.956,0.354 -0.193,0.068 -0.379,0.145 -0.561,0.228 0,-5.031 0,-8.689 0,-9.212 l 0.003,-0.009 c 0.017,-0.05 0.097,-0.191 0.25,-0.348 z m -9.3,50.715 c 0.093,-0.186 0.248,-0.416 0.47,-0.665 0.39,-0.436 0.98,-0.922 1.721,-1.381 0.399,-0.248 0.841,-0.488 1.318,-0.717 l 1.087,1.818 -4.728,10.019 c 0,-4.232 0,-7.631 0,-8.626 0,-0.088 0.025,-0.234 0.132,-0.448 z m -18.519,109.947 c 0,-2.324 0,-13.131 0,-17.484 0.002,-0.052 0.01,-0.126 0.074,-0.261 0.059,-0.124 0.171,-0.296 0.349,-0.493 0.33,-0.372 0.891,-0.824 1.637,-1.279 1.308,-0.802 3.167,-1.623 5.337,-2.369 3.257,-1.124 7.219,-2.095 11.198,-2.778 3.389,-0.584 6.794,-0.957 9.783,-1.054 l 0,27.245 -21.657,2.291 c -0.275,-0.012 -1.339,-0.096 -2.595,-0.57 -0.719,-0.271 -1.499,-0.667 -2.25,-1.242 -0.663,-0.511 -1.306,-1.159 -1.876,-2.006 z m -39.681,140.462 68.059,-2.897 0,51.02 0,0.114 -31.368,1.189 -0.181,0.007 0.005,-0.055 -0.063,0.057 -23.26,0.881 -13.192,-21.848 0,-28.468 z m 7.304,80.173 8.641,8.321 -14.884,11.164 c 2.299,-6.676 4.407,-13.229 6.243,-19.485 z m -18.374,51.665 4.564,14.682 -15.504,10.549 c 3.63,-7.862 7.34,-16.408 10.94,-25.231 z m -9.65,27.237 14.953,-10.174 3.189,10.258 -18.142,-0.084 z m 16.978,2.463 -13.956,8.373 -4.813,-8.461 18.769,0.088 z m -20.861,1.055 4.861,8.545 -13.218,7.93 c 2.64,-4.835 5.458,-10.398 8.357,-16.475 z m -10.624,20.616 16.662,-9.998 5.686,9.998 -10.583,0 -11.765,0 z m 26.819,20.606 -6.516,0 -35.038,0 7.304,-17.572 2.051,0 17.147,0 13.864,0 4.514,0 -3.326,17.572 z m -2.645,-22.219 -5.466,-9.612 12.828,-7.696 c -1.509,3.309 -2.876,6.453 -4.05,9.224 -1.426,3.371 -2.562,6.19 -3.312,8.084 z m 10.495,-23.969 -3.149,-10.129 14.464,-9.841 c -2.765,3.921 -5.522,8.674 -8.125,13.641 -1.097,2.089 -2.162,4.214 -3.19,6.329 z m 36.036,-28.016 31.773,0.173 -11.777,17.195 -16.219,-14.44 c -0.886,-0.889 -1.845,-1.687 -2.883,-2.376 -0.292,-0.194 -0.59,-0.377 -0.894,-0.552 z m 13.045,23.661 c -0.655,-3.299 -1.504,-6.535 -2.611,-9.552 -0.411,-1.12 -0.859,-2.21 -1.345,-3.261 l 9.549,8.503 -5.045,7.366 c -0.167,-1.022 -0.348,-2.043 -0.548,-3.056 z m 8.927,19.6 -6.722,8.136 c -10e-4,-3.788 -0.06,-8.952 -0.486,-14.581 -0.045,-0.608 -0.097,-1.222 -0.152,-1.84 l 7.36,8.285 z m -11.066,30.943 0,-17.572 1.3,0 0,0.001 20.374,0 0,17.572 -21.674,0 z m 46.384,0 -21.675,0 0,-17.572 20.374,0 1.3,0 0,17.572 z m -4.343,-23.243 -6.362,-7.699 6.958,-7.832 c -0.507,5.95 -0.59,11.468 -0.596,15.531 z m 4.723,-36.601 c -1.351,3.746 -2.309,7.823 -2.997,11.931 l -4.782,-6.983 9.058,-8.109 c -0.461,1.022 -0.887,2.078 -1.279,3.161 z m 35.809,-5.51 c -0.025,-0.035 -0.048,-0.069 -0.072,-0.104 l 14.243,9.438 -3.197,10.285 c -0.091,-0.188 -0.182,-0.376 -0.274,-0.564 -3.292,-6.766 -6.984,-13.633 -10.7,-19.055 z m 13.751,25.527 13.326,7.995 -5.68,9.986 c -1.333,-3.378 -4.113,-10.248 -7.646,-17.981 z m 5.317,39.827 -3.327,-17.572 4.051,0 14.328,0 16.684,0 2.514,0 7.304,17.572 -35.037,0 -6.517,0 z"
         style="fill:#00a199"
         inkscape:connector-curvature="0" />
    </g>
    <g
       id="g3578"
       transform="translate(146.85815,347.79127)">
      <path
         id="path3580"
         d="m 189.081,3.819 c -2.344,0 -7.028,7.615 -14.642,11.71 -18.15,9.366 -12.357,30.994 -1.755,36.299 5.853,2.924 17.352,6.581 26.344,-4.105 9.368,-11.116 3.516,-32.195 1.171,-35.126 -2.342,-2.924 -5.853,4.1 -8.782,5.273 3.514,-4.681 0.001,-14.051 -2.336,-14.051 z"
         style="fill:#70bf7f"
         inkscape:connector-curvature="0" />
      <path
         id="path3582"
         d="m 250.012,198.461 c 17.389,0 31.489,-14.097 31.489,-31.491 0,-17.392 -14.1,-31.493 -31.489,-31.493 -17.399,0 -31.496,14.102 -31.496,31.493 0,17.394 14.097,31.491 31.496,31.491 z"
         style="fill:#70bf7f"
         inkscape:connector-curvature="0" />
      <path
         id="path3584"
         d="m 298.569,308.956 0,-46.205 0.512,62.721 51.068,-87.683 -29.065,-15.408 -22.516,36.053 0,-0.062 5.057,-8.54 c -20.144,-38.54 -30.158,-48.497 -51.602,-48.497 -21.429,0 -30.845,-21.437 -30.845,-21.437 l -2.073,0.654 c -2.098,-6.904 -20.584,-68.019 -20.584,-77.865 0,0 -4.274,-1.494 -9.629,-3.195 l 4.15,0.751 0,-15.695 c 0,-7.795 14.654,-11.447 14.654,-11.447 l 0,-8.764 -47.323,0 0,8.764 c 0,0 13.724,3.707 14.649,11.447 l 0,11.009 c -3.173,-0.729 -5.696,-1.097 -6.718,-0.756 -3.946,1.313 -1.313,31.533 15.768,31.533 l -5.258,0 c 8.941,32.401 14.965,55.506 16.568,61.697 l -4.535,1.43 c 0,0 8.371,20.44 8.371,26.374 0,5.937 0,21.434 0,21.434 l 0,63.788 0,41.046 0,52.232 -17.31,0 0,24.4 10.979,0 0,60.625 -12.357,0 0,28.821 134.512,0 0,-28.821 -12.352,0 0,-60.625 10.979,0 0,-24.4 -15.102,0 0,-84.722 0,-0.657 z"
         style="fill:#70bf7f"
         inkscape:connector-curvature="0" />
      <path
         id="path3586"
         d="m 184.441,58.698 c 2.854,0.002 5.922,-0.52 8.941,-1.875 3.021,-1.35 5.954,-3.531 8.568,-6.641 2.355,-2.794 3.859,-6.034 4.774,-9.341 0.918,-3.312 1.258,-6.713 1.26,-9.982 -0.003,-4.662 -0.696,-9.063 -1.581,-12.618 -0.442,-1.778 -0.935,-3.339 -1.442,-4.647 -0.254,-0.656 -0.512,-1.248 -0.788,-1.795 -0.284,-0.549 -0.56,-1.042 -0.99,-1.589 -0.458,-0.569 -1.052,-1.119 -1.81,-1.524 -0.751,-0.408 -1.651,-0.622 -2.461,-0.614 -1.002,0 -1.83,0.271 -2.484,0.577 -0.055,0.025 -0.097,0.055 -0.149,0.082 -0.288,-1.313 -0.696,-2.546 -1.191,-3.662 -0.5,-1.099 -1.064,-2.086 -1.857,-2.999 -0.405,-0.452 -0.87,-0.9 -1.519,-1.303 -0.639,-0.393 -1.524,-0.766 -2.631,-0.768 -1.347,0.02 -2.232,0.47 -2.926,0.863 -1.201,0.726 -2.046,1.547 -3.011,2.469 -1.412,1.38 -2.944,3.006 -4.697,4.592 -1.75,1.581 -3.7,3.105 -5.818,4.242 l 0.003,0.005 c -4.761,2.461 -8.267,5.808 -10.502,9.582 -2.255,3.789 -3.225,7.949 -3.222,11.952 0.005,4.599 1.248,9.018 3.337,12.777 2.096,3.752 5.04,6.902 8.732,8.762 l 1.708,-3.414 -1.706,3.416 c 3.192,1.584 7.93,3.438 13.462,3.453 z M 168.917,42.769 c -1.474,-2.643 -2.377,-5.87 -2.372,-9.065 0.002,-2.792 0.661,-5.539 2.151,-8.048 1.497,-2.509 3.831,-4.836 7.493,-6.733 l 0.022,-0.01 0.037,-0.02 c 4.383,-2.367 7.707,-5.584 10.186,-8.056 0.738,-0.738 1.39,-1.397 1.954,-1.949 0.025,0.069 0.055,0.129 0.08,0.204 0.37,1.091 0.619,2.431 0.614,3.605 0.007,1.352 -0.326,2.382 -0.724,2.884 l -8.162,10.905 12.643,-5.072 c 1.405,-0.587 2.273,-1.368 3.083,-2.113 0.818,-0.778 1.539,-1.571 2.168,-2.243 1.076,3.041 2.267,8.406 2.255,13.801 0,2.73 -0.296,5.47 -0.982,7.944 -0.686,2.479 -1.75,4.672 -3.257,6.459 -1.957,2.322 -3.918,3.722 -5.85,4.592 -1.932,0.863 -3.871,1.204 -5.815,1.206 -3.744,0.015 -7.494,-1.362 -10.052,-2.65 l 0,0 c -1.971,-0.972 -4.005,-2.988 -5.472,-5.641 z"
         style="fill:#000011"
         inkscape:connector-curvature="0" />
      <polygon
         id="polygon3588"
         points="167.097,91.176 167.075,91.184 167.087,91.181 "
         style="fill:#000011" />
      <path
         id="path3590"
         d="m 355.447,236.275 -35.72,-18.933 -15.689,25.121 c -8.699,-16.195 -15.614,-26.971 -23.097,-34.102 -4.157,-3.953 -8.55,-6.743 -13.349,-8.463 -0.94,-0.336 -1.902,-0.602 -2.867,-0.86 12.143,-5.584 20.591,-17.822 20.594,-32.068 0,-6.166 -1.589,-11.959 -4.368,-17.006 l 11.039,-7.725 -4.381,-6.258 -11.064,7.747 c -1.701,-1.942 -3.61,-3.687 -5.694,-5.216 l 6.755,-11.698 -6.616,-3.819 -6.74,11.678 c -3.25,-1.437 -6.745,-2.407 -10.42,-2.802 l 0,-13.475 -7.638,0 0,13.475 c -2.615,0.281 -5.134,0.87 -7.548,1.691 l -5.699,-12.227 -6.924,3.227 5.706,12.237 c -2.215,1.345 -4.274,2.914 -6.134,4.697 l -10.336,-8.675 -4.527,5.393 c -0.025,-0.09 -0.052,-0.182 -0.077,-0.274 -2.23,-8.028 -4.334,-15.924 -5.87,-22.334 -0.768,-3.202 -1.395,-6.034 -1.818,-8.297 -0.43,-2.235 -0.639,-3.995 -0.626,-4.622 l 0,-2.71 -2.556,-0.895 c -0.012,-0.002 -1.148,-0.4 -2.924,-0.997 l 0,-13.537 c 0.003,-0.373 0.075,-0.694 0.261,-1.097 0.316,-0.689 1.089,-1.596 2.23,-2.449 1.691,-1.293 4.082,-2.414 5.999,-3.135 0.96,-0.363 1.803,-0.637 2.392,-0.813 0.296,-0.09 0.527,-0.154 0.679,-0.196 l 0.164,-0.042 0.032,-0.01 2.894,-0.721 0,-15.567 -54.959,0 0,15.507 2.822,0.763 0,0 c 0.072,0.015 3.282,0.925 6.32,2.581 1.526,0.82 2.991,1.835 3.975,2.854 0.957,0.989 1.407,1.867 1.532,2.655 l 0,6.094 c -0.624,-0.072 -1.228,-0.117 -1.827,-0.119 -0.679,0.012 -1.35,0.027 -2.288,0.328 -0.684,0.229 -1.253,0.597 -1.686,0.985 -0.763,0.691 -1.166,1.4 -1.472,2.064 -0.445,1 -0.669,1.972 -0.828,3.026 -0.154,1.049 -0.224,2.173 -0.224,3.376 0.022,5.201 1.258,12.019 4.378,18.045 1.571,3.001 3.647,5.818 6.447,7.961 0.467,0.36 0.99,0.666 1.501,0.979 5.216,18.916 9.438,34.654 12.357,45.666 1.372,5.176 2.447,9.261 3.21,12.198 l -5.032,1.586 1.574,3.841 c 0,0 0.124,0.303 0.348,0.865 0.788,1.962 2.772,6.994 4.54,12.116 0.883,2.558 1.713,5.141 2.302,7.329 0.293,1.091 0.53,2.086 0.681,2.899 0.154,0.808 0.216,1.454 0.214,1.718 -0.003,5.937 -0.003,21.434 -0.003,21.434 l 0.003,63.788 -0.003,41.046 0.003,0 0,48.413 -17.31,0 0,32.038 10.979,0 0,52.987 -12.357,0 0,36.459 142.15,0 0,-3.819 0,-32.64 -12.347,0 0,-52.987 10.979,0 0,-3.819 0,-28.219 -15.102,0 0,-63.131 53.06,-91.11 z m -33.01,-8.854 22.411,11.879 -42.461,72.905 0,-2.593 0,-0.656 0,-49.427 20.05,-32.108 z m -72.425,-88.125 c 7.653,0.002 14.545,3.09 19.565,8.105 5.015,5.02 8.103,11.917 8.105,19.569 -0.003,7.653 -3.09,14.547 -8.105,19.567 -5.02,5.015 -11.912,8.103 -19.565,8.105 -7.658,-0.003 -14.555,-3.093 -19.574,-8.105 -5.012,-5.02 -8.103,-11.912 -8.105,-19.567 0.002,-7.653 3.093,-14.55 8.105,-19.569 5.022,-5.015 11.916,-8.103 19.574,-8.105 z m -29.348,8.033 c -1.989,2.969 -3.523,6.26 -4.542,9.774 -1.636,-5.611 -3.399,-11.753 -5.107,-17.871 l 9.649,8.097 z m -54.39,-76.155 c -0.756,-0.323 -1.454,-0.597 -2.083,-0.83 l 0,-2.188 39.686,0 0,2.128 c -1.464,0.505 -3.324,1.231 -5.258,2.223 -2.066,1.072 -4.224,2.426 -6.049,4.326 -0.907,0.952 -1.735,2.054 -2.349,3.351 -0.614,1.288 -0.999,2.787 -0.997,4.364 l 0,11.046 c -0.594,-0.189 -1.191,-0.375 -1.805,-0.564 -2.842,-0.875 -5.798,-1.723 -8.578,-2.449 l 0,-8.264 -0.027,-0.224 c -0.368,-3.038 -1.954,-5.462 -3.752,-7.28 -2.731,-2.74 -6.08,-4.455 -8.788,-5.639 z m 8.856,56.178 0,-0.003 0,0.003 0,0 z m 8.687,2.782 c 0.087,0 0.167,0.02 0.254,0.02 l 0,-7.638 c -2.32,-0.015 -4.073,-0.701 -5.733,-1.949 -2.471,-1.855 -4.55,-5.246 -5.878,-9.057 -1.342,-3.787 -1.952,-7.934 -1.944,-10.878 -0.002,-0.788 0.047,-1.477 0.117,-2.029 0.338,0.045 0.706,0.099 1.116,0.174 3.906,0.691 10.412,2.586 15.785,4.291 2.695,0.853 5.134,1.661 6.894,2.255 0.186,0.062 0.333,0.112 0.505,0.172 0.015,0.114 0.025,0.214 0.04,0.331 0.624,4.356 2.21,11.126 4.259,19.067 4.814,18.625 12.17,43.336 15.126,53.152 l -16.292,5.137 c -2.32,-8.882 -7.327,-27.87 -14.249,-53.048 z m 127.407,374.228 -126.875,0 0,-21.183 4.719,0 0,0.378 117.442,0 0,-0.378 4.714,0 0,21.183 z m -12.352,-28.821 -102.166,0 0,-52.987 102.166,0 0,52.987 z m 10.979,-77.387 0,16.763 -3.341,0 -117.442,0 -3.342,0 0,-16.763 9.672,0 106.989,0 7.464,0 z m -106.817,-7.638 0,-36.158 70.707,-43.311 -3.988,-6.514 -66.719,40.867 0,-3.297 0.003,0 0,-21.919 41.809,-25.614 -3.988,-6.514 -37.821,23.167 0,-10.166 -0.003,-28.475 51.406,-31.491 -3.988,-6.514 -47.418,29.047 0,-26.354 c 0,0 0,-15.497 0,-21.434 -0.005,-1.181 -0.182,-2.322 -0.435,-3.597 -0.9,-4.386 -2.934,-10.293 -4.764,-15.286 -0.452,-1.231 -0.893,-2.397 -1.298,-3.458 l 23.132,-8.351 c 1.323,2.195 3.329,5.119 6.111,8.088 2.747,2.924 6.258,5.893 10.631,8.15 4.366,2.258 9.615,3.779 15.611,3.774 5.072,0 9.244,0.587 12.983,1.932 2.81,1.012 5.41,2.454 8.041,4.525 3.936,3.1 7.931,7.67 12.342,14.209 4.145,6.141 8.657,14.028 13.861,23.903 l -4.5,7.603 0,51.63 0,0.656 0,80.903 -91.715,0 z"
         style="fill:#000011"
         inkscape:connector-curvature="0" />
      <rect
         id="rect3592"
         height="24.820999"
         width="7.638"
         style="fill:#000011"
         y="435.61401"
         x="217.78999" />
      <rect
         id="rect3594"
         height="24.820999"
         width="7.638"
         style="fill:#000011"
         y="435.61401"
         x="241.578" />
      <rect
         id="rect3596"
         height="24.820999"
         width="7.638"
         style="fill:#000011"
         y="435.61401"
         x="265.37" />
      <path
         id="path3598"
         d="m 232.178,175.232 c 6.671,-2.673 11.889,-6.608 15.482,-9.871 1.007,-0.915 1.87,-1.768 2.616,-2.541 0.746,0.773 1.611,1.626 2.615,2.541 3.595,3.262 8.816,7.198 15.487,9.871 l 2.837,-7.091 c -5.529,-2.208 -10.069,-5.594 -13.185,-8.431 -1.559,-1.415 -2.762,-2.688 -3.561,-3.595 -0.398,-0.45 -0.696,-0.811 -0.89,-1.047 l -0.206,-0.259 -0.043,-0.055 0,-0.002 -3.055,-4.073 -3.056,4.073 0,0.002 c -0.112,0.147 -1.89,2.444 -4.995,5.221 -3.103,2.782 -7.531,6.027 -12.886,8.165 l 2.84,7.092 z"
         style="fill:#000011"
         inkscape:connector-curvature="0" />
    </g>
    <g
       id="g3737"
       transform="translate(509.71429,530.64842)">
      <path
         id="path3739"
         d="m 13.264,458.881 c -0.466,0 -0.937,-0.194 -1.261,-0.518 -0.324,-0.324 -0.518,-0.794 -0.518,-1.257 l 0.004,-50.876 0.006,-0.427 3.058,-55.099 -9.43,0 c -0.98,0 -1.776,-0.799 -1.776,-1.777 0,-0.982 0.796,-1.777 1.776,-1.777 l 9.628,0 2.955,-53.263 -8.941,0 c -0.98,0 -1.779,-0.796 -1.779,-1.775 0,-0.98 0.799,-1.779 1.779,-1.779 l 9.137,0 2.486,-44.737 -8.441,0 c -0.98,0 -1.777,-0.799 -1.777,-1.779 0,-0.98 0.798,-1.779 1.777,-1.779 l 8.996,0 0,-37.637 -8.996,0 c -0.98,0 -1.777,-0.794 -1.777,-1.775 0,-0.98 0.798,-1.777 1.777,-1.777 l 8.875,0 0,-10.569 c -0.002,-1.837 0.306,-3.644 0.916,-5.373 0.559,-1.593 1.382,-3.151 2.443,-4.641 1.811,-2.524 4.292,-4.876 7.579,-7.176 1.031,-0.72 2.045,-1.389 3.009,-2.026 0.559,-0.367 1.102,-0.726 1.62,-1.073 0.92,-0.623 1.75,-1.209 2.482,-1.772 l 1.308,-1.007 0,-17.141 c 0,-0.98 0.798,-1.779 1.777,-1.779 0.982,0 1.779,0.799 1.779,1.779 l 0,17.139 1.31,1.007 c 0.739,0.568 1.574,1.162 2.505,1.785 0.53,0.359 1.108,0.739 1.704,1.131 0.933,0.613 1.915,1.261 2.912,1.958 2.377,1.659 4.315,3.339 5.93,5.14 1.894,2.115 3.267,4.36 4.081,6.671 0.609,1.737 0.92,3.545 0.92,5.377 l 0,10.569 8.869,0 c 0.982,0 1.779,0.798 1.779,1.777 0,0.982 -0.798,1.775 -1.779,1.775 l -8.994,0 0,37.637 8.994,0 c 0.982,0 1.779,0.8 1.779,1.779 0,0.98 -0.798,1.779 -1.779,1.779 l -8.439,0 2.486,44.737 9.137,0 c 0.98,0 1.777,0.799 1.777,1.779 0,0.98 -0.797,1.775 -1.777,1.775 l -8.939,0 2.953,53.263 9.628,0 c 0.98,0 1.777,0.795 1.777,1.777 0,0.978 -0.797,1.777 -1.777,1.777 l -9.43,0 2.973,53.591 20.752,0 0,-173.866 c 0,-0.982 0.796,-1.777 1.776,-1.777 0.982,0 1.779,0.796 1.779,1.777 l 0,27.287 45.387,0 0,-35.235 -9.017,0 c -0.98,0 -1.775,-0.796 -1.775,-1.773 0,-0.982 0.796,-1.779 1.775,-1.779 l 8.9,0 0,-11.629 c -0.012,-4.705 1.799,-8.419 3.318,-10.705 1.81,-2.742 4.275,-5.278 7.544,-7.762 l 0.021,-0.016 c 1.001,-0.749 1.989,-1.457 2.924,-2.129 1.62,-1.166 3.151,-2.266 4.389,-3.306 l 1.195,-1.001 0,-18.727 c 0,-0.98 0.796,-1.779 1.775,-1.779 0.98,0 1.779,0.799 1.779,1.779 l 0,18.717 1.195,1.003 c 1.232,1.036 2.75,2.127 4.358,3.283 0.902,0.648 1.853,1.329 2.817,2.051 l 4.255,3.173 1.038,-5.204 c 1.808,-9.069 5.518,-17.898 11.017,-26.24 6.826,-10.359 16.26,-20.026 28.838,-29.55 3.879,-2.93 7.841,-5.763 11.675,-8.507 8.495,-6.077 16.518,-11.821 22.724,-17.896 l 0.196,-0.165 1.246,-1.007 0,-48.414 c 0,-0.98 0.798,-1.779 1.779,-1.779 0.978,0 1.773,0.799 1.773,1.779 l 0,48.459 1.296,1.005 0.18,0.157 c 6.197,6.062 14.209,11.79 22.689,17.857 3.836,2.745 7.802,5.582 11.687,8.514 12.574,9.523 22.006,19.19 28.832,29.548 5.499,8.342 9.205,17.17 11.021,26.247 l 1.04,5.219 4.257,-3.196 c 0.992,-0.741 1.97,-1.445 2.893,-2.113 1.573,-1.131 3.062,-2.2 4.272,-3.221 l 1.193,-1.003 0,-18.717 c 0,-0.98 0.799,-1.779 1.779,-1.779 0.98,0 1.779,0.799 1.779,1.779 l 0,18.727 1.197,1.005 c 1.238,1.036 2.765,2.135 4.381,3.299 0.937,0.673 1.925,1.382 2.928,2.132 l 0.033,0.023 c 3.26,2.482 5.724,5.014 7.529,7.746 1.525,2.297 3.335,6.013 3.322,10.705 l 0,11.636 8.899,0 c 0.98,0 1.779,0.798 1.779,1.779 0,0.978 -0.799,1.773 -1.779,1.773 l -9.015,0 0,35.235 45.385,0 0,-27.287 c 0,-0.982 0.798,-1.777 1.779,-1.777 0.98,0 1.777,0.796 1.777,1.777 l 0,173.866 20.752,0 2.971,-53.591 -9.422,0 c -0.982,0 -1.777,-0.799 -1.777,-1.777 0,-0.982 0.796,-1.777 1.777,-1.777 l 9.622,0 2.953,-53.263 -8.939,0 c -0.982,0 -1.779,-0.796 -1.779,-1.775 0,-0.98 0.798,-1.779 1.779,-1.779 l 9.135,0 2.487,-44.737 -8.439,0 c -0.98,0 -1.781,-0.799 -1.781,-1.779 0,-0.98 0.801,-1.779 1.781,-1.779 l 8.993,0 0,-37.637 -8.993,0 c -0.98,0 -1.781,-0.794 -1.781,-1.775 0,-0.98 0.801,-1.777 1.781,-1.777 l 8.873,0 0,-10.569 c -0.004,-1.832 0.307,-3.64 0.916,-5.377 0.559,-1.589 1.382,-3.149 2.441,-4.634 1.809,-2.526 4.288,-4.878 7.575,-7.181 0.99,-0.693 1.975,-1.341 2.905,-1.954 0.596,-0.392 1.174,-0.772 1.721,-1.143 0.92,-0.615 1.76,-1.211 2.499,-1.781 l 1.3,-1.005 0,-17.133 c 0,-0.98 0.799,-1.779 1.779,-1.779 0.98,0 1.775,0.799 1.775,1.779 l 0,17.141 1.308,1.007 c 0.736,0.565 1.564,1.152 2.486,1.772 0.526,0.353 1.081,0.722 1.651,1.096 0.957,0.629 1.964,1.294 2.986,2.006 2.388,1.669 4.329,3.349 5.934,5.138 1.892,2.113 3.264,4.358 4.079,6.671 0.611,1.727 0.918,3.533 0.918,5.377 l 0,10.569 8.875,0 c 0.982,0 1.777,0.798 1.777,1.777 0,0.982 -0.796,1.775 -1.777,1.775 l -8.997,0 0,37.637 8.997,0 c 0.982,0 1.777,0.8 1.777,1.779 0,0.98 -0.796,1.779 -1.777,1.779 l -8.437,0 2.48,44.737 9.139,0 c 0.98,0 1.778,0.799 1.778,1.779 0,0.98 -0.798,1.775 -1.778,1.775 l -8.945,0 2.959,53.263 9.626,0 c 0.98,0 1.777,0.795 1.777,1.777 0,0.978 -0.797,1.777 -1.777,1.777 l -9.43,0 3.054,55.013 -0.014,0.116 0.029,0.413 0,50.859 c 0,0.462 -0.196,0.931 -0.524,1.261 -0.322,0.32 -0.794,0.514 -1.253,0.514 l -485.462,0 z"
         style="fill:#ffeddc"
         inkscape:connector-curvature="0" />
      <polygon
         id="polygon3741"
         points="493.312,400.935 446.753,400.935 449.365,354.058 490.714,354.058 "
         style="fill:#ffc3ae" />
      <polygon
         id="polygon3743"
         points="65.231,400.935 18.688,400.935 21.286,354.058 62.635,354.058 "
         style="fill:#ffc3ae" />
      <path
         id="path3745"
         d="m 506.872,343.799 c 2.833,0 5.128,2.296 5.128,5.129 0,2.833 -2.296,5.13 -5.128,5.13 l -5.883,0 2.868,51.722 0,0.151 0.017,0.132 0,51.037 c 0,1.357 -0.555,2.682 -1.51,3.636 -0.957,0.955 -2.28,1.492 -3.638,1.492 l -485.467,0 c -1.343,0 -2.666,-0.537 -3.623,-1.492 -0.953,-0.954 -1.508,-2.28 -1.508,-3.636 l 0,-51.037 0.017,-0.132 0,-0.151 2.866,-51.722 -5.881,0 c -2.835,0 -5.13,-2.297 -5.13,-5.13 0,-2.833 2.296,-5.129 5.13,-5.129 l 6.452,0 2.581,-46.561 -5.398,0 c -2.831,0 -5.128,-2.297 -5.128,-5.128 0,-2.831 2.297,-5.129 5.128,-5.129 l 5.967,0 2.113,-38.029 -4.894,0 c -2.833,0 -5.128,-2.296 -5.128,-5.146 0,-2.835 2.296,-5.128 5.128,-5.128 l 5.631,0 0,-30.922 -5.631,0 c -2.833,0 -5.128,-2.298 -5.128,-5.132 0,-2.831 2.296,-5.126 5.128,-5.126 l 5.514,0 0,-7.224 c 0,-2.28 0.4,-4.476 1.106,-6.485 0.722,-2.014 1.709,-3.84 2.883,-5.466 2.346,-3.285 5.33,-5.85 8.378,-7.979 1.643,-1.155 3.252,-2.179 4.678,-3.134 0.856,-0.586 1.64,-1.123 2.313,-1.659 l 0,-15.486 c 0,-2.833 2.296,-5.13 5.129,-5.13 2.833,0 5.128,2.297 5.128,5.13 l 0,15.486 c 0.687,0.536 1.457,1.089 2.328,1.659 1.426,0.955 3.035,1.979 4.676,3.134 2.298,1.593 4.527,3.436 6.504,5.648 1.977,2.197 3.687,4.777 4.744,7.796 0.704,2.008 1.121,4.205 1.121,6.485 l 0,7.224 5.515,0 c 2.833,0 5.127,2.295 5.127,5.126 0,2.835 -2.294,5.132 -5.127,5.132 l -5.65,0 0,30.922 5.65,0 c 2.833,0 5.127,2.293 5.127,5.128 0,2.85 -2.294,5.146 -5.127,5.146 l -4.894,0 2.111,38.029 5.968,0 c 2.831,0 5.127,2.298 5.127,5.129 0,2.831 -2.296,5.128 -5.127,5.128 l -5.398,0 2.581,46.561 6.453,0 c 2.831,0 5.129,2.296 5.129,5.129 0,2.833 -2.298,5.13 -5.129,5.13 l -5.883,0 2.596,46.877 14.231,0 0,-141.439 0,-29.063 c 0,-2.833 2.296,-5.13 5.129,-5.13 2.833,0 5.13,2.298 5.13,5.13 l 0,23.934 38.681,0 0,-28.525 -5.664,0 c -2.833,0 -5.128,-2.297 -5.128,-5.13 0,-2.831 2.295,-5.128 5.128,-5.128 l 5.548,0 0,-8.28 c -0.018,-4.793 1.575,-9.085 3.873,-12.572 2.313,-3.487 5.293,-6.285 8.346,-8.598 l 0.018,0 c 2.714,-2.045 5.328,-3.787 7.156,-5.313 l 0,-17.162 c 0,-2.831 2.296,-5.128 5.128,-5.128 2.831,0 5.128,2.297 5.128,5.128 l 0,17.147 c 1.793,1.508 4.356,3.217 7.024,5.21 2.01,-10.073 6.101,-19.223 11.512,-27.419 7.829,-11.9 18.389,-21.872 29.616,-30.386 12.405,-9.37 25.295,-17.516 34.092,-26.148 l -0.018,0.035 c 0.151,-0.149 0.285,-0.268 0.437,-0.386 l 0,-46.812 c 0,-2.833 2.297,-5.128 5.128,-5.128 2.835,0 5.13,2.295 5.13,5.128 l 0,46.811 0.45,0.404 0.017,0 c 8.782,8.613 21.654,16.743 34.042,26.096 11.231,8.514 21.773,18.486 29.616,30.386 5.414,8.196 9.486,17.347 11.514,27.437 2.664,-2.01 5.212,-3.72 7.005,-5.227 l 0,-17.147 c 0,-2.831 2.297,-5.128 5.148,-5.128 2.815,0 5.126,2.297 5.126,5.128 l 0,17.162 c 1.81,1.525 4.426,3.268 7.156,5.313 3.07,2.313 6.036,5.111 8.347,8.598 2.313,3.487 3.89,7.779 3.89,12.572 l 0,8.28 5.528,0 c 2.835,0 5.148,2.297 5.148,5.128 0,2.833 -2.313,5.13 -5.148,5.13 l -5.647,0 0,28.525 38.683,0 0,-23.934 c 0,-2.833 2.296,-5.13 5.13,-5.13 2.831,0 5.128,2.298 5.128,5.13 l 0,29.063 0,141.441 14.229,0 2.598,-46.877 -5.883,0 c -2.833,0 -5.128,-2.297 -5.128,-5.13 0,-2.833 2.295,-5.129 5.128,-5.129 l 6.454,0 2.581,-46.561 -5.396,0 c -2.833,0 -5.13,-2.297 -5.13,-5.128 0,-2.831 2.298,-5.129 5.13,-5.129 l 5.965,0 2.113,-38.029 -4.894,0 c -2.833,0 -5.13,-2.296 -5.13,-5.146 0,-2.835 2.297,-5.128 5.13,-5.128 l 5.631,0 0,-30.922 -5.631,0 c -2.833,0 -5.13,-2.298 -5.13,-5.132 0,-2.831 2.297,-5.126 5.13,-5.126 l 5.513,0 0,-7.224 c 0,-2.28 0.404,-4.476 1.106,-6.485 0.704,-2.014 1.711,-3.824 2.883,-5.466 2.346,-3.285 5.33,-5.85 8.38,-7.979 1.642,-1.155 3.252,-2.179 4.659,-3.134 0.873,-0.57 1.659,-1.123 2.332,-1.659 l 0,-15.486 c 0,-2.833 2.294,-5.13 5.126,-5.13 2.833,0 5.128,2.297 5.128,5.13 l 0,15.486 c 0.687,0.536 1.459,1.073 2.315,1.659 1.424,0.955 3.033,1.979 4.692,3.134 2.278,1.593 4.527,3.436 6.504,5.648 1.975,2.197 3.687,4.777 4.742,7.796 0.72,2.008 1.106,4.205 1.106,6.485 l 0,7.224 5.53,0 c 2.833,0 5.13,2.295 5.13,5.126 0,2.835 -2.297,5.132 -5.13,5.132 l -5.646,0 0,30.922 5.646,0 c 2.833,0 5.13,2.293 5.13,5.128 0,2.85 -2.297,5.146 -5.13,5.146 l -4.894,0 2.113,38.029 5.966,0 c 2.833,0 5.128,2.298 5.128,5.129 0,2.831 -2.295,5.128 -5.128,5.128 l -5.398,0 2.581,46.561 6.461,0 z m -13.274,108.174 0,-40.779 -173.892,0 c -0.636,0.301 -1.356,0.469 -2.111,0.469 -0.755,0 -1.457,-0.169 -2.111,-0.469 l -118.983,0 c -0.638,0.301 -1.358,0.469 -2.113,0.469 -0.753,0 -1.457,-0.169 -2.111,-0.469 l -173.89,0 0,40.779 475.211,0 z m -0.286,-51.038 -2.598,-46.877 -41.349,0 -2.612,46.877 46.559,0 z m -3.168,-57.136 -2.579,-46.561 -35.047,0 -2.583,46.561 40.209,0 z m -3.149,-56.817 -2.111,-38.029 -29.684,0 -2.113,38.029 33.908,0 z m -2.732,-89.484 0,-7.224 c 0,-1.106 -0.186,-2.113 -0.52,-3.085 -0.353,-0.988 -0.854,-1.944 -1.558,-2.914 -1.358,-1.929 -3.471,-3.822 -5.901,-5.534 -1.409,-0.972 -2.967,-1.977 -4.542,-3.015 -0.569,-0.404 -1.139,-0.803 -1.71,-1.207 -0.57,0.404 -1.137,0.823 -1.725,1.207 -1.56,1.055 -3.118,2.043 -4.527,3.015 -1.828,1.277 -3.468,2.666 -4.742,4.092 -1.29,1.442 -2.196,2.899 -2.699,4.356 -0.351,0.972 -0.538,1.979 -0.538,3.085 l 0,7.224 28.462,0 z m -0.119,41.18 0,-30.922 -28.207,0 0,30.922 28.207,0 z m -72.137,162.257 0,-136.312 -27.033,0 0,136.313 27.033,0 z m -37.292,0 0,-136.312 -51.973,0 0,136.313 51.973,0 z m -11.531,-185.353 0,-8.28 c -0.018,-2.583 -0.788,-4.761 -2.195,-6.923 -1.411,-2.162 -3.537,-4.222 -5.967,-6.068 -1.894,-1.442 -4.024,-2.866 -6.12,-4.475 -2.096,1.609 -4.222,3.033 -6.101,4.475 -1.727,1.308 -2.647,2.346 -3.25,3.336 -0.588,0.972 -0.957,2.03 -1.189,3.739 -0.169,1.139 -0.237,2.546 -0.237,4.238 0,0.673 -0.134,1.277 -0.351,1.845 -0.25,2.749 -0.603,5.447 -1.124,8.113 l 26.534,0 z m -0.134,38.784 0,-28.525 -29.047,0 c -2.631,7.975 -6.471,15.401 -11.26,22.089 l 0,6.436 40.307,0 z m -36.722,-39.471 c 1.005,-4.777 1.558,-9.721 1.558,-14.784 -0.018,-13.559 -4.257,-25.306 -11.213,-35.885 -6.939,-10.54 -16.61,-19.811 -27.22,-27.839 -11.314,-8.582 -23.649,-16.392 -33.436,-25.475 l -0.017,0.017 -0.016,-0.015 c -9.789,9.083 -22.124,16.893 -33.438,25.475 -10.61,8.027 -20.298,17.298 -27.235,27.839 -6.939,10.579 -11.18,22.326 -11.196,35.885 0,5.063 0.551,10.006 1.541,14.784 l 140.672,0 z m -2.951,10.259 -134.77,0 c 2.128,5.714 4.977,11.079 8.413,16.004 l 117.943,0 c 3.437,-4.924 6.286,-10.29 8.414,-16.004 z m -10.91,175.781 0,-149.52 -112.95,0 0,149.521 112.95,0 z m -123.208,0 0,-136.312 -51.99,0 0,136.313 51.99,0 z m 0,-146.569 0,-6.421 c -4.793,-6.686 -8.631,-14.13 -11.264,-22.105 l -29.063,0 0,28.525 40.327,0 z m -40.443,-38.784 26.517,0 c -0.503,-2.666 -0.856,-5.363 -1.108,-8.113 -0.217,-0.568 -0.369,-1.172 -0.369,-1.845 0.018,-2.544 -0.167,-4.422 -0.503,-5.747 -0.349,-1.341 -0.79,-2.195 -1.642,-3.234 -0.57,-0.702 -1.374,-1.457 -2.515,-2.33 -1.894,-1.442 -4.022,-2.866 -6.118,-4.475 -2.094,1.609 -4.224,3.033 -6.1,4.475 -2.447,1.845 -4.558,3.906 -5.967,6.068 -1.426,2.162 -2.177,4.34 -2.197,6.923 l 0,8.278 z m -21.806,185.353 0,-136.312 -27.015,0 0,136.313 27.015,0 z m -61.779,0 -2.596,-46.877 -41.349,0 -2.598,46.877 46.543,0 z m -3.166,-57.136 -2.583,-46.561 -35.047,0 -2.581,46.561 40.211,0 z m -3.154,-56.817 -2.109,-38.029 -29.683,0 -2.113,38.029 33.905,0 z m -2.73,-89.484 0,-7.224 c 0,-1.106 -0.186,-2.113 -0.52,-3.085 -0.351,-0.988 -0.856,-1.944 -1.56,-2.914 -1.354,-1.929 -3.45,-3.822 -5.881,-5.534 -1.426,-0.972 -2.967,-1.96 -4.543,-3.015 -0.568,-0.384 -1.139,-0.803 -1.709,-1.207 -0.586,0.404 -1.156,0.803 -1.727,1.207 -1.574,1.038 -3.116,2.043 -4.525,3.015 -1.826,1.277 -3.487,2.666 -4.758,4.092 -1.277,1.442 -2.181,2.899 -2.701,4.356 -0.351,0.972 -0.538,1.979 -0.538,3.085 l 0,7.224 28.462,0 z m -0.118,41.18 0,-30.922 -28.225,0 0,30.922 28.225,0 z"
         style="fill:#7f2400"
         inkscape:connector-curvature="0" />
      <path
         id="path3747"
         d="m 493.598,411.194 0,40.779 -475.211,0 0,-40.779 173.89,0 c 0.654,0.301 1.358,0.469 2.111,0.469 0.755,0 1.475,-0.169 2.113,-0.469 l 118.983,0 c 0.654,0.301 1.356,0.469 2.111,0.469 0.755,0 1.475,-0.169 2.111,-0.469 l 173.892,0 z"
         style="fill:#e2e1d0"
         inkscape:connector-curvature="0" />
      <polygon
         id="polygon3749"
         points="490.144,343.799 449.936,343.799 452.518,297.238 487.565,297.238 "
         style="fill:#e2e1d0" />
      <path
         id="path3751"
         d="m 484.263,190.274 0,7.224 -28.461,0 0,-7.224 c 0,-1.106 0.186,-2.113 0.538,-3.085 0.503,-1.457 1.409,-2.914 2.699,-4.356 1.275,-1.426 2.914,-2.816 4.742,-4.092 1.409,-0.972 2.967,-1.96 4.527,-3.015 0.588,-0.384 1.154,-0.803 1.725,-1.207 0.571,0.404 1.141,0.803 1.71,1.207 1.576,1.038 3.134,2.043 4.542,3.015 2.429,1.712 4.543,3.605 5.901,5.534 0.704,0.97 1.205,1.927 1.558,2.914 0.332,0.972 0.519,1.979 0.519,3.085 z"
         style="fill:#e2e1d0"
         inkscape:connector-curvature="0" />
      <rect
         id="rect3753"
         height="30.922001"
         width="28.207001"
         style="fill:#ffc3ae"
         y="207.757"
         x="455.93701" />
      <path
         id="path3755"
         d="m 363.184,207.303 0,8.28 -26.533,0 c 0.52,-2.666 0.873,-5.363 1.124,-8.113 0.217,-0.568 0.351,-1.172 0.351,-1.845 0,-1.692 0.068,-3.099 0.237,-4.238 0.233,-1.709 0.602,-2.767 1.189,-3.739 0.603,-0.99 1.523,-2.028 3.25,-3.336 1.879,-1.442 4.005,-2.866 6.101,-4.475 2.095,1.609 4.226,3.033 6.12,4.475 2.429,1.845 4.556,3.906 5.967,6.068 1.406,2.161 2.176,4.34 2.194,6.923 z"
         style="fill:#e2e1d0"
         inkscape:connector-curvature="0" />
      <path
         id="path3757"
         d="m 355.911,353.385 0,10.408 c 0,2.835 -2.297,5.132 -5.13,5.132 -2.831,0 -5.129,-2.297 -5.129,-5.132 l 0,-10.408 c 0,-2.831 2.298,-5.126 5.129,-5.126 2.833,0 5.13,2.295 5.13,5.126 z"
         style="fill:#7f2400"
         inkscape:connector-curvature="0" />
      <path
         id="path3759"
         d="m 355.911,297.105 0,10.408 c 0,2.835 -2.297,5.129 -5.13,5.129 -2.831,0 -5.129,-2.294 -5.129,-5.129 l 0,-10.408 c 0,-2.831 2.298,-5.128 5.129,-5.128 2.833,-10e-4 5.13,2.297 5.13,5.128 z"
         style="fill:#7f2400"
         inkscape:connector-curvature="0" />
      <path
         id="path3761"
         d="m 327.887,200.112 c 0,5.063 -0.553,10.006 -1.558,14.784 l -140.673,0 c -0.99,-4.777 -1.541,-9.721 -1.541,-14.784 0.015,-13.559 4.257,-25.306 11.196,-35.885 6.937,-10.54 16.625,-19.811 27.235,-27.839 11.314,-8.582 23.649,-16.392 33.438,-25.475 l 0.016,0.015 0.017,-0.015 c 9.787,9.083 22.122,16.893 33.436,25.475 10.61,8.027 20.281,17.298 27.22,27.839 6.956,10.578 11.196,22.325 11.214,35.885 z"
         style="fill:#e2e1d0"
         inkscape:connector-curvature="0" />
      <path
         id="path3763"
         d="m 188.607,225.154 134.77,0 c -2.129,5.714 -4.977,11.079 -8.413,16.004 l -117.943,0 c -3.437,-4.924 -6.285,-10.29 -8.414,-16.004 z"
         style="fill:#ffc3ae"
         inkscape:connector-curvature="0" />
      <path
         id="path3765"
         d="m 312.467,251.415 0,149.521 -112.95,0 0,-149.521 112.95,0 z m -24.74,121.581 c 0,0 0,-36.822 0,-52.51 0,-4.441 -0.685,-8.229 -1.894,-11.446 -1.776,-4.812 -4.777,-8.181 -7.608,-10.377 -1.426,-1.106 -2.8,-1.942 -3.972,-2.596 -1.174,-0.671 -2.161,-1.174 -2.715,-1.494 -1.257,-0.737 -2.684,-1.44 -4.174,-2.129 -4.441,-2.074 -9.471,-4.005 -9.519,-4.02 -1.191,-0.469 -2.497,-0.469 -3.689,0 -0.033,0 -2.296,0.871 -5.096,2.061 -1.407,0.588 -2.949,1.257 -4.441,1.96 -1.49,0.689 -2.918,1.391 -4.174,2.129 -0.737,0.437 -2.228,1.158 -3.939,2.214 -2.579,1.558 -5.782,4.007 -8.229,7.911 -2.449,3.906 -4.02,9.135 -4.005,15.789 0,15.688 0,52.51 0,52.51 0,1.356 0.538,2.664 1.492,3.621 0.955,0.957 2.28,1.508 3.636,1.508 l 53.2,0 c 1.339,0 2.662,-0.551 3.621,-1.508 0.955,-0.959 1.506,-2.266 1.506,-3.623 z"
         style="fill:#e2e1d0"
         inkscape:connector-curvature="0" />
      <path
         id="path3767"
         d="m 287.727,320.486 c 0,15.688 0,52.51 0,52.51 0,1.356 -0.551,2.664 -1.506,3.621 -0.958,0.957 -2.282,1.508 -3.621,1.508 l -53.199,0 c -1.356,0 -2.681,-0.551 -3.636,-1.508 -0.954,-0.957 -1.492,-2.264 -1.492,-3.621 0,0 0,-36.822 0,-52.51 -0.016,-6.653 1.556,-11.883 4.005,-15.789 2.447,-3.904 5.65,-6.353 8.229,-7.911 1.711,-1.056 3.202,-1.777 3.939,-2.214 1.255,-0.737 2.684,-1.44 4.174,-2.129 1.492,-0.702 3.035,-1.372 4.441,-1.96 2.8,-1.189 5.063,-2.061 5.096,-2.061 1.191,-0.469 2.497,-0.469 3.689,0 0.048,0.016 5.078,1.946 9.519,4.02 1.49,0.689 2.916,1.391 4.174,2.129 0.553,0.32 1.541,0.823 2.715,1.494 1.172,0.654 2.546,1.49 3.972,2.596 2.831,2.197 5.833,5.565 7.608,10.377 1.208,3.219 1.893,7.007 1.893,11.448 z m -10.257,47.38 c 0,-10.674 0,-35.295 0,-47.38 -0.017,-5.111 -1.139,-8.196 -2.462,-10.34 -1.343,-2.146 -3.035,-3.489 -4.878,-4.61 -1.225,-0.755 -2.464,-1.358 -3.772,-2.111 -0.735,-0.436 -1.861,-1.007 -3.066,-1.576 -1.24,-0.57 -2.583,-1.174 -3.838,-1.711 -1.308,-0.551 -2.513,-1.038 -3.454,-1.424 -0.336,0.136 -0.689,0.285 -1.071,0.435 -1.745,0.722 -3.974,1.661 -5.969,2.583 -1.324,0.619 -2.548,1.24 -3.336,1.694 -0.987,0.568 -1.909,1.04 -2.848,1.574 -0.922,0.52 -1.843,1.09 -2.699,1.76 -1.727,1.358 -3.235,3.019 -4.323,5.883 -0.72,1.911 -1.224,4.441 -1.224,7.845 0,12.085 0,36.706 0,47.38 l 42.94,0 z"
         style="fill:#7f2400"
         inkscape:connector-curvature="0" />
      <path
         id="path3769"
         d="m 175.333,215.582 -26.517,0 0,-8.28 c 0.02,-2.583 0.77,-4.761 2.197,-6.923 1.409,-2.162 3.52,-4.222 5.967,-6.068 1.876,-1.442 4.007,-2.866 6.1,-4.475 2.096,1.609 4.224,3.033 6.118,4.475 1.141,0.873 1.944,1.628 2.515,2.33 0.852,1.04 1.292,1.894 1.642,3.234 0.336,1.325 0.52,3.204 0.503,5.747 0,0.673 0.151,1.277 0.369,1.845 0.25,2.752 0.604,5.449 1.106,8.115 z"
         style="fill:#e2e1d0"
         inkscape:connector-curvature="0" />
      <path
         id="path3771"
         d="m 166.347,353.385 0,10.408 c 0,2.835 -2.295,5.132 -5.128,5.132 -2.833,0 -5.128,-2.297 -5.128,-5.132 l 0,-10.408 c 0,-2.831 2.296,-5.126 5.128,-5.126 2.833,0 5.128,2.295 5.128,5.126 z"
         style="fill:#7f2400"
         inkscape:connector-curvature="0" />
      <path
         id="path3773"
         d="m 166.347,297.105 0,10.408 c 0,2.835 -2.295,5.129 -5.128,5.129 -2.833,0 -5.128,-2.294 -5.128,-5.129 l 0,-10.408 c 0,-2.831 2.296,-5.128 5.128,-5.128 2.833,-10e-4 5.128,2.297 5.128,5.128 z"
         style="fill:#7f2400"
         inkscape:connector-curvature="0" />
      <polygon
         id="polygon3775"
         points="62.065,343.799 21.854,343.799 24.435,297.238 59.482,297.238 "
         style="fill:#e2e1d0" />
      <path
         id="path3777"
         d="m 56.181,190.274 0,7.224 -28.461,0 0,-7.224 c 0,-1.106 0.186,-2.113 0.538,-3.085 0.52,-1.457 1.424,-2.914 2.701,-4.356 1.271,-1.426 2.932,-2.816 4.758,-4.092 1.409,-0.972 2.951,-1.977 4.525,-3.015 0.57,-0.404 1.141,-0.803 1.727,-1.207 0.57,0.404 1.141,0.823 1.709,1.207 1.576,1.055 3.116,2.043 4.543,3.015 2.431,1.712 4.527,3.605 5.881,5.534 0.704,0.97 1.209,1.927 1.56,2.914 0.333,0.972 0.519,1.979 0.519,3.085 z"
         style="fill:#e2e1d0"
         inkscape:connector-curvature="0" />
      <rect
         id="rect3779"
         height="30.922001"
         width="28.224001"
         style="fill:#ffc3ae"
         y="207.757"
         x="27.837999" />
    </g>
    <g
       id="g4015"
       transform="matrix(1.1841518,0,0,1.1841518,-142.92801,367.79078)">
      <path
         id="path4017"
         d="m 159.525,510.986 0,-37.91 -7.996,-6.692 14.259,-17.28 0,-35.077 -7.996,-6.694 14.258,-17.277 0,-35.081 -7.996,-6.693 14.261,-17.278 0,-35.079 -7.999,-6.692 14.261,-17.28 0,-35.078 -7.996,-6.696 14.259,-17.276 -0.001,-35.081 -7.996,-6.693 14.261,-17.277 0,-35.08 -8.561,-7.165 53.994,-35.461 0.048,-0.483 c 0.118,-1.213 0.401,-2.404 0.839,-3.54 l 0.06,-0.157 0.806,-19.401 -0.066,-0.185 c -0.473,-1.339 -0.714,-2.737 -0.714,-4.157 -0.001,-2.193 0.576,-4.351 1.669,-6.24 0.758,-1.311 1.744,-2.468 2.933,-3.437 l 0.343,-0.279 0.029,-0.442 c 0.051,-0.793 0.223,-1.563 0.512,-2.287 0.19,-0.479 0.435,-0.946 0.73,-1.388 l 0.171,-0.256 0,-32.877 12.207,0 0,32.88 0.17,0.255 c 0.293,0.442 0.538,0.909 0.73,1.387 0.287,0.724 0.459,1.494 0.51,2.288 l 0.028,0.442 0.344,0.279 c 1.188,0.969 2.175,2.125 2.933,3.437 1.093,1.888 1.67,4.046 1.669,6.24 0,1.418 -0.24,2.817 -0.715,4.157 l -0.065,0.185 0.806,19.401 0.06,0.157 c 0.439,1.135 0.721,2.326 0.839,3.539 l 0.048,0.483 53.994,35.462 -8.56,7.165 0,35.08 14.259,17.277 -7.996,6.693 0,35.081 14.26,17.276 -7.996,6.696 0,35.08 14.259,17.278 -7.997,6.692 0,35.079 14.259,17.277 -7.996,6.693 0,35.081 14.261,17.278 -7.999,6.694 0,35.077 14.261,17.28 -7.997,6.692 0,37.91 -85.604,0 -107.344,0 z"
         style="fill:#ffae00"
         inkscape:connector-curvature="0" />
      <path
         id="path4019"
         d="m 260.692,135.913 0,15.594 -9.383,0 0,-15.594 c 0,-0.655 0.132,-1.264 0.365,-1.827 0.356,-0.837 0.954,-1.558 1.705,-2.065 0.376,-0.253 0.786,-0.452 1.223,-0.589 0.436,-0.137 0.903,-0.213 1.396,-0.213 0.655,0 1.262,0.132 1.826,0.371 0.838,0.355 1.559,0.954 2.066,1.705 0.253,0.375 0.452,0.786 0.589,1.222 0.136,0.437 0.207,0.904 0.213,1.396 z"
         style="fill:#724e41"
         inkscape:connector-curvature="0" />
      <path
         id="path4021"
         d="m 347.223,448.74 14.671,17.776 -8.409,7.034 0,38.45 -86.618,0 -18.669,0 -3.096,0 -86.593,0 0,-38.45 -8.403,-7.034 14.665,-17.776 0,-34.238 -8.403,-7.038 14.665,-17.772 0,-34.243 -8.403,-7.034 14.67,-17.776 0,-34.238 -8.408,-7.039 14.671,-17.771 0,-34.244 -8.41,-7.038 14.671,-17.771 0,-34.243 -8.408,-7.033 14.67,-17.772 0,-34.243 -9.245,-7.739 54.735,-35.943 c 0.127,-1.33 0.436,-2.609 0.898,-3.806 l 0.791,-19.04 c -0.497,-1.405 -0.771,-2.923 -0.771,-4.495 0,-2.446 0.66,-4.761 1.806,-6.744 0.822,-1.426 1.903,-2.685 3.167,-3.715 0.061,-0.908 0.258,-1.787 0.584,-2.599 0.223,-0.558 0.502,-1.086 0.826,-1.578 l 0,-33.588 14.239,0 0,33.588 c 0.325,0.492 0.604,1.021 0.827,1.578 0.324,0.812 0.523,1.69 0.579,2.594 1.268,1.035 2.349,2.293 3.172,3.72 1.147,1.979 1.807,4.298 1.807,6.744 0,1.573 -0.274,3.09 -0.772,4.495 l 0.786,19.04 c 0.467,1.197 0.777,2.476 0.904,3.806 l 54.729,35.943 -9.241,7.739 0,34.243 14.665,17.772 -8.403,7.033 0,34.243 14.67,17.771 -8.408,7.038 0,34.244 14.671,17.771 -8.404,7.039 0,34.238 14.665,17.776 -8.403,7.034 0,34.243 14.671,17.772 -8.409,7.038 0,34.238 z m 5.978,16.975 -10.534,-12.768 -173.339,0 -10.535,12.768 3.938,3.293 186.531,0 3.939,-3.293 z m -5.907,40.094 0,-30.61 -182.593,0 0,30.61 80.402,0 0,-15.595 c 0,-1.116 0.167,-2.207 0.487,-3.232 0.32,-1.025 0.786,-1.984 1.37,-2.852 1.178,-1.735 2.832,-3.11 4.786,-3.938 1.303,-0.553 2.745,-0.857 4.237,-0.857 1.122,0 2.213,0.172 3.238,0.487 1.026,0.32 1.985,0.786 2.852,1.37 1.736,1.177 3.111,2.832 3.937,4.785 0.554,1.304 0.858,2.745 0.858,4.237 l 0,15.595 80.426,0 z m -0.355,-99.147 -10.535,-12.763 -69.522,0 -18.669,0 -3.096,0 -69.527,0 -10.535,12.763 3.938,3.298 174.007,0 3.939,-3.298 z m -5.912,40.094 0,-30.604 -170.064,0 0,30.604 74.154,0 0,-15.589 c 0,-1.121 0.168,-2.213 0.487,-3.237 0.32,-1.021 0.786,-1.98 1.37,-2.847 1.172,-1.735 2.827,-3.116 4.785,-3.943 1.303,-0.553 2.74,-0.858 4.238,-0.858 1.121,0 2.207,0.173 3.232,0.492 1.025,0.32 1.984,0.781 2.852,1.37 1.736,1.173 3.116,2.827 3.943,4.785 0.553,1.304 0.857,2.74 0.857,4.238 l 0,15.589 74.146,0 z m -0.35,-99.142 -10.535,-12.767 -148.289,0 -10.535,12.767 3.938,3.294 161.483,0 3.938,-3.294 z m -5.912,40.094 0,-30.61 -157.54,0 0,30.61 67.892,0 0,-15.594 c 0,-1.122 0.168,-2.207 0.487,-3.232 0.32,-1.025 0.786,-1.984 1.37,-2.852 1.172,-1.736 2.827,-3.11 4.785,-3.942 1.303,-0.548 2.74,-0.853 4.238,-0.853 1.115,0 2.207,0.168 3.232,0.487 1.025,0.32 1.984,0.787 2.852,1.37 1.736,1.173 3.116,2.827 3.943,4.786 0.553,1.303 0.857,2.745 0.857,4.237 l 0,15.594 67.884,0 z m -0.35,-99.147 -10.54,-12.762 -135.76,0 -10.535,12.762 3.937,3.299 148.96,0 3.938,-3.299 z m -5.912,40.094 0,-30.605 -145.01,0 0,30.605 61.625,0 0,-15.589 c 0,-1.121 0.168,-2.212 0.487,-3.238 0.32,-1.025 0.786,-1.984 1.37,-2.852 1.172,-1.736 2.827,-3.111 4.785,-3.938 1.303,-0.553 2.74,-0.858 4.238,-0.858 1.115,0 2.207,0.173 3.232,0.492 1.025,0.32 1.984,0.782 2.852,1.37 1.736,1.172 3.111,2.826 3.943,4.785 0.553,1.304 0.857,2.74 0.857,4.237 l 0,15.589 61.621,0 z m -0.35,-99.142 -10.535,-12.763 -50.736,0 -18.669,0 -3.096,0 -50.735,0 -10.536,12.763 3.938,3.293 136.43,0 3.939,-3.293 z m -5.912,40.095 0,-30.61 -132.488,0 0,30.61 55.364,0 0,-15.594 c 0,-1.116 0.168,-2.207 0.487,-3.232 0.32,-1.025 0.786,-1.984 1.37,-2.852 1.172,-1.736 2.827,-3.111 4.785,-3.938 1.303,-0.553 2.74,-0.857 4.238,-0.857 1.115,0 2.207,0.172 3.232,0.492 1.025,0.315 1.984,0.782 2.852,1.365 1.736,1.172 3.116,2.832 3.943,4.785 0.553,1.304 0.857,2.746 0.857,4.238 l 0,15.594 51.888,0 3.472,0 z m -0.355,-99.148 -10.535,-12.763 -44.469,0 -18.669,0 -3.096,0 -44.474,0 -10.535,12.763 3.938,3.294 123.902,0 3.938,-3.294 z m -5.907,40.095 0,-30.605 -119.963,0 0,30.605 49.102,0 0,-15.594 c 0,-1.117 0.168,-2.208 0.487,-3.233 0.32,-1.025 0.786,-1.984 1.37,-2.852 1.172,-1.735 2.827,-3.111 4.785,-3.938 1.303,-0.553 2.74,-0.858 4.238,-0.858 1.115,0 2.207,0.172 3.232,0.492 1.025,0.314 1.984,0.782 2.852,1.37 1.736,1.172 3.111,2.826 3.943,4.78 0.553,1.304 0.857,2.745 0.857,4.238 l 0,15.594 49.097,0 z m -6.262,-94.2 1.73,-1.447 -110.899,0 1.73,1.447 0,35.152 42.839,0 0,-15.594 c 0,-1.121 0.168,-2.208 0.487,-3.233 0.32,-1.026 0.786,-1.984 1.37,-2.852 1.172,-1.735 2.827,-3.111 4.785,-3.943 1.303,-0.553 2.74,-0.858 4.238,-0.858 1.121,0 2.207,0.173 3.232,0.492 1.025,0.32 1.984,0.781 2.857,1.37 1.736,1.173 3.111,2.831 3.938,4.785 0.553,1.304 0.857,2.745 0.857,4.237 l 0,15.594 42.835,0 0,-35.15 z m -107.338,-7.642 107.236,0 -43.626,-28.646 -19.984,0 -43.626,28.646 z m 61.316,-34.842 c -0.031,-0.067 -0.056,-0.137 -0.087,-0.208 l -0.233,-0.533 -0.888,-21.47 0.264,-0.634 c 0.36,-0.863 0.558,-1.802 0.558,-2.801 0,-1.341 -0.355,-2.573 -0.975,-3.65 -0.623,-1.075 -1.512,-1.979 -2.573,-2.618 l -1.837,-1.106 0.386,-2.106 c 0.025,-0.147 0.041,-0.289 0.041,-0.431 0,-0.315 -0.056,-0.599 -0.163,-0.863 -0.106,-0.264 -0.258,-0.507 -0.451,-0.72 l -0.811,-0.889 0,-29.646 -1.858,0 0,29.646 -0.812,0.889 c -0.192,0.213 -0.345,0.456 -0.451,0.72 -0.106,0.264 -0.163,0.548 -0.163,0.863 0,0.137 0.01,0.284 0.041,0.431 l 0.386,2.106 -1.836,1.106 c -1.061,0.639 -1.955,1.548 -2.573,2.618 -0.619,1.076 -0.975,2.309 -0.975,3.65 0,0.999 0.197,1.938 0.558,2.801 l 0.265,0.634 -0.888,21.47 -0.234,0.533 c -0.031,0.071 -0.056,0.142 -0.087,0.208 l 15.396,0 z m -3.003,372.885 0,-15.589 c -0.006,-0.492 -0.076,-0.959 -0.214,-1.395 -0.137,-0.442 -0.335,-0.853 -0.589,-1.223 -0.507,-0.751 -1.228,-1.35 -2.066,-1.706 -0.564,-0.239 -1.171,-0.365 -1.826,-0.37 -0.493,0 -0.96,0.076 -1.396,0.213 -0.437,0.136 -0.847,0.335 -1.223,0.588 -0.751,0.508 -1.349,1.228 -1.705,2.065 -0.233,0.559 -0.365,1.173 -0.365,1.827 l 0,15.589 9.384,0 z m 0,-59.048 0,-15.594 c -0.006,-0.492 -0.076,-0.959 -0.214,-1.395 -0.137,-0.436 -0.335,-0.847 -0.589,-1.223 -0.507,-0.751 -1.228,-1.35 -2.066,-1.705 -0.564,-0.233 -1.171,-0.365 -1.826,-0.365 -0.493,0 -0.96,0.071 -1.396,0.208 -0.442,0.137 -0.853,0.335 -1.223,0.589 -0.751,0.507 -1.349,1.228 -1.705,2.065 -0.233,0.563 -0.365,1.172 -0.365,1.826 l 0,15.594 9.384,0 z m 0,-59.053 0,-15.589 c -0.006,-0.492 -0.076,-0.959 -0.214,-1.395 -0.137,-0.442 -0.335,-0.852 -0.589,-1.228 -0.507,-0.746 -1.228,-1.345 -2.066,-1.7 -0.564,-0.238 -1.171,-0.366 -1.826,-0.366 -0.493,0 -0.96,0.071 -1.396,0.208 -0.442,0.137 -0.853,0.335 -1.223,0.588 -0.751,0.508 -1.349,1.228 -1.705,2.066 -0.233,0.558 -0.365,1.167 -0.365,1.827 l 0,15.589 9.384,0 z m 0,-59.047 0,-15.594 c -0.006,-0.493 -0.076,-0.954 -0.214,-1.396 -0.137,-0.436 -0.335,-0.848 -0.589,-1.223 -0.507,-0.751 -1.228,-1.35 -2.066,-1.7 -0.564,-0.238 -1.171,-0.37 -1.826,-0.37 -0.493,0 -0.96,0.076 -1.396,0.213 -0.442,0.136 -0.853,0.335 -1.223,0.589 -0.751,0.502 -1.349,1.228 -1.705,2.065 -0.233,0.559 -0.365,1.167 -0.365,1.822 l 0,15.594 9.384,0 z m 0,-59.053 0,-15.594 c -0.006,-0.493 -0.076,-0.955 -0.214,-1.396 -0.137,-0.437 -0.335,-0.848 -0.589,-1.223 -0.507,-0.751 -1.228,-1.35 -2.066,-1.7 -0.564,-0.238 -1.171,-0.37 -1.826,-0.37 -0.493,0 -0.96,0.076 -1.396,0.213 -0.442,0.137 -0.853,0.335 -1.223,0.589 -0.751,0.502 -1.349,1.228 -1.705,2.065 -0.233,0.558 -0.365,1.167 -0.365,1.822 l 0,15.594 9.384,0 z m 0,-59.048 0,-15.594 c -0.006,-0.492 -0.076,-0.959 -0.214,-1.396 -0.137,-0.436 -0.335,-0.847 -0.589,-1.222 -0.507,-0.752 -1.228,-1.35 -2.066,-1.705 -0.564,-0.238 -1.171,-0.371 -1.826,-0.371 -0.493,0 -0.96,0.076 -1.396,0.213 -0.437,0.137 -0.847,0.335 -1.223,0.589 -0.751,0.507 -1.349,1.228 -1.705,2.065 -0.233,0.563 -0.365,1.173 -0.365,1.827 l 0,15.594 9.384,0 z m -0.016,354.302 0,-15.595 c 0,-0.492 -0.076,-0.954 -0.212,-1.395 -0.138,-0.436 -0.335,-0.848 -0.589,-1.223 -0.508,-0.751 -1.228,-1.35 -2.066,-1.705 -0.558,-0.234 -1.167,-0.365 -1.827,-0.365 -0.492,0 -0.954,0.076 -1.396,0.208 -0.436,0.137 -0.847,0.34 -1.223,0.588 -0.751,0.507 -1.35,1.234 -1.705,2.071 -0.234,0.559 -0.365,1.167 -0.365,1.822 l 0,15.595 9.383,0 z"
         style="fill:#5f1e00"
         inkscape:connector-curvature="0" />
      <polygon
         id="polygon4023"
         points="349.263,469.008 162.732,469.008 158.794,465.715 169.328,452.947 342.667,452.947 353.201,465.715 "
         style="fill:#9e796a" />
      <polygon
         id="polygon4025"
         points="343,409.96 168.994,409.96 165.056,406.662 175.59,393.899 245.117,393.899 248.213,393.899 266.882,393.899 336.404,393.899 346.939,406.662 "
         style="fill:#9e796a" />
      <polygon
         id="polygon4027"
         points="336.739,350.908 175.256,350.908 171.318,347.614 181.853,334.846 330.142,334.846 340.677,347.614 "
         style="fill:#9e796a" />
      <polygon
         id="polygon4029"
         points="330.477,291.86 181.517,291.86 177.58,288.561 188.115,275.799 323.875,275.799 334.415,288.561 "
         style="fill:#9e796a" />
      <polygon
         id="polygon4031"
         points="324.215,232.807 187.785,232.807 183.846,229.513 194.382,216.751 245.117,216.751 248.213,216.751 266.882,216.751 317.618,216.751 328.153,229.513 "
         style="fill:#9e796a" />
      <polygon
         id="polygon4033"
         points="317.948,173.754 194.047,173.754 190.109,170.46 200.643,157.698 245.117,157.698 248.213,157.698 266.882,157.698 311.351,157.698 321.886,170.46 "
         style="fill:#9e796a" />
      <polygon
         id="polygon4035"
         points="309.615,108.713 202.379,108.713 246.005,80.067 265.989,80.067 "
         style="fill:#9e796a" />
      <path
         id="path4037"
         d="m 263.609,73.663 c 0.031,0.071 0.056,0.142 0.087,0.208 l -15.397,0 c 0.031,-0.067 0.056,-0.137 0.087,-0.208 l 0.234,-0.533 0.888,-21.47 -0.265,-0.634 c -0.361,-0.863 -0.558,-1.802 -0.558,-2.801 0,-1.341 0.356,-2.573 0.975,-3.65 0.619,-1.071 1.512,-1.979 2.573,-2.618 l 1.836,-1.106 -0.386,-2.106 c -0.031,-0.147 -0.041,-0.294 -0.041,-0.431 0,-0.315 0.057,-0.599 0.163,-0.863 0.106,-0.264 0.259,-0.507 0.451,-0.72 l 0.812,-0.889 0,-29.646 1.858,0 0,29.646 0.811,0.889 c 0.193,0.213 0.345,0.456 0.451,0.72 0.107,0.264 0.163,0.548 0.163,0.863 0,0.142 -0.016,0.284 -0.041,0.431 l -0.386,2.106 1.837,1.106 c 1.06,0.639 1.949,1.543 2.573,2.618 0.619,1.076 0.975,2.309 0.975,3.65 0,0.999 -0.198,1.938 -0.558,2.801 l -0.264,0.634 0.888,21.47 0.234,0.533 z"
         style="fill:#ffae00"
         inkscape:connector-curvature="0" />
      <path
         id="path4039"
         d="m 260.692,431.167 0,15.589 -9.383,0 0,-15.589 c 0,-0.655 0.132,-1.269 0.365,-1.827 0.356,-0.837 0.954,-1.557 1.705,-2.065 0.376,-0.254 0.786,-0.452 1.223,-0.588 0.436,-0.137 0.903,-0.213 1.396,-0.213 0.655,0.005 1.262,0.131 1.826,0.37 0.838,0.355 1.559,0.954 2.066,1.706 0.253,0.37 0.452,0.782 0.589,1.223 0.136,0.435 0.207,0.902 0.213,1.394 z"
         style="fill:#724e41"
         inkscape:connector-curvature="0" />
      <path
         id="path4041"
         d="m 260.692,372.114 0,15.594 -9.383,0 0,-15.594 c 0,-0.654 0.132,-1.264 0.365,-1.826 0.356,-0.837 0.954,-1.558 1.705,-2.065 0.371,-0.254 0.782,-0.453 1.223,-0.589 0.436,-0.137 0.903,-0.208 1.396,-0.208 0.655,0 1.262,0.132 1.826,0.365 0.838,0.355 1.559,0.954 2.066,1.705 0.253,0.376 0.452,0.787 0.589,1.223 0.136,0.436 0.207,0.903 0.213,1.395 z"
         style="fill:#724e41"
         inkscape:connector-curvature="0" />
      <path
         id="path4043"
         d="m 260.692,313.066 0,15.589 -9.383,0 0,-15.589 c 0,-0.66 0.132,-1.269 0.365,-1.827 0.356,-0.837 0.954,-1.558 1.705,-2.066 0.371,-0.253 0.782,-0.451 1.223,-0.588 0.436,-0.137 0.903,-0.208 1.396,-0.208 0.655,0 1.262,0.127 1.826,0.366 0.838,0.355 1.559,0.954 2.066,1.7 0.253,0.375 0.452,0.786 0.589,1.228 0.136,0.436 0.207,0.903 0.213,1.395 z"
         style="fill:#724e41"
         inkscape:connector-curvature="0" />
      <path
         id="path4045"
         d="m 260.692,254.013 0,15.594 -9.383,0 0,-15.594 c 0,-0.655 0.132,-1.263 0.365,-1.822 0.356,-0.837 0.954,-1.563 1.705,-2.065 0.371,-0.254 0.782,-0.452 1.223,-0.589 0.436,-0.137 0.903,-0.213 1.396,-0.213 0.655,0 1.262,0.132 1.826,0.37 0.838,0.35 1.559,0.949 2.066,1.7 0.253,0.375 0.452,0.786 0.589,1.223 0.136,0.442 0.207,0.903 0.213,1.396 z"
         style="fill:#724e41"
         inkscape:connector-curvature="0" />
      <path
         id="path4047"
         d="m 260.692,194.961 0,15.594 -9.383,0 0,-15.594 c 0,-0.655 0.132,-1.264 0.365,-1.822 0.356,-0.837 0.954,-1.563 1.705,-2.065 0.371,-0.254 0.782,-0.452 1.223,-0.589 0.436,-0.137 0.903,-0.213 1.396,-0.213 0.655,0 1.262,0.132 1.826,0.37 0.838,0.35 1.559,0.949 2.066,1.7 0.253,0.375 0.452,0.786 0.589,1.223 0.136,0.441 0.207,0.903 0.213,1.396 z"
         style="fill:#724e41"
         inkscape:connector-curvature="0" />
      <path
         id="path4049"
         d="m 260.676,490.215 0,15.595 -9.382,0 0,-15.595 c 0,-0.655 0.131,-1.263 0.365,-1.822 0.355,-0.837 0.954,-1.563 1.705,-2.071 0.376,-0.248 0.786,-0.451 1.223,-0.588 0.442,-0.132 0.904,-0.208 1.396,-0.208 0.66,0 1.269,0.132 1.827,0.365 0.838,0.355 1.558,0.954 2.066,1.705 0.254,0.375 0.451,0.786 0.589,1.223 0.134,0.441 0.211,0.904 0.211,1.396 z"
         style="fill:#724e41"
         inkscape:connector-curvature="0" />
    </g>
  </g>
</svg>
