<?xml version="1.0" encoding="UTF-8" standalone="no"?>
<!-- Created with Inkscape (http://www.inkscape.org/) -->

<svg
   xmlns:dc="http://purl.org/dc/elements/1.1/"
   xmlns:cc="http://creativecommons.org/ns#"
   xmlns:rdf="http://www.w3.org/1999/02/22-rdf-syntax-ns#"
   xmlns:svg="http://www.w3.org/2000/svg"
   xmlns="http://www.w3.org/2000/svg"
   xmlns:sodipodi="http://sodipodi.sourceforge.net/DTD/sodipodi-0.dtd"
   xmlns:inkscape="http://www.inkscape.org/namespaces/inkscape"
   width="172.85258mm"
   height="176.17668mm"
   viewBox="0 0 612.46979 624.24808"
   id="svg2"
   version="1.1"
   inkscape:version="0.91pre4 r13712"
   sodipodi:docname="haguruma.ink.svg">
  <defs
     id="defs4" />
  <sodipodi:namedview
     id="base"
     pagecolor="#ffffff"
     bordercolor="#666666"
     borderopacity="1.0"
     inkscape:pageopacity="0.0"
     inkscape:pageshadow="2"
     inkscape:zoom="0.35"
     inkscape:cx="-173.38516"
     inkscape:cy="454.94955"
     inkscape:document-units="px"
     inkscape:current-layer="layer1"
     showgrid="false"
     fit-margin-top="0"
     fit-margin-left="0"
     fit-margin-right="0"
     fit-margin-bottom="0"
     inkscape:window-width="1366"
     inkscape:window-height="745"
     inkscape:window-x="-8"
     inkscape:window-y="-8"
     inkscape:window-maximized="1" />
  <metadata
     id="metadata7">
    <rdf:RDF>
      <cc:Work
         rdf:about="">
        <dc:format>image/svg+xml</dc:format>
        <dc:type
           rdf:resource="http://purl.org/dc/dcmitype/StillImage" />
        <dc:title></dc:title>
      </cc:Work>
    </rdf:RDF>
  </metadata>
  <g
     inkscape:label="レイヤー 1"
     inkscape:groupmode="layer"
     id="layer1"
     transform="translate(-72.670872,-363.06368)">
    <path
       d="m 443.23176,621.81897 c 38.07532,40.59234 24.57118,120.45864 -42.62999,133.24367 -84.62075,16.14104 -125.6526,-85.53965 -71.19647,-136.63972 12.50532,-11.7462 23.09289,-15.50179 39.23396,-19.4172 28.20693,-3.87544 54.33624,1.23855 74.5925,22.81325 z M 412.5877,577.31116 c 100.00269,29.72513 94.56908,175.63396 -7.99061,197.52826 C 316.86,793.6174 254.45323,695.49251 299.16078,621.09978 c 16.50062,-27.44777 35.59823,-37.83557 65.48318,-45.86618 17.65927,-2.79672 30.56414,-3.07639 47.94374,2.07756 z"
       id="選択範囲#3"
       inkscape:connector-curvature="0"
       style="fill:#1f2c38;fill-opacity:1;stroke:none;stroke-width:3.99531245" />
    <path
       d="m 389.70251,555.44202 c 129.71798,4.39721 155.98352,184.72244 39.26088,230.18654 -16.21473,6.32103 -33.68581,8.87298 -51.03914,8.16629 C 273.1762,789.55467 227.7121,663.3702 296.73275,590.50199 c 18.17777,-19.15933 40.28166,-28.62119 65.48716,-35.05997 10.28634,-0.58892 16.96069,-1.25635 27.4826,0 z m 109.93048,-83.42938 c 0,0 6.87068,-91.28154 6.87068,-91.28154 0,0 -85.39245,-17.66742 -85.39245,-17.66742 0,0 -36.31632,69.68808 -36.31632,69.68808 0.78522,-2.55196 -68.62803,4.515 -69.68808,7.85217 0,0 -48.09457,-61.83588 -48.09457,-61.83588 0,0 -79.50329,47.11306 -79.50329,47.11306 0,0 29.44567,73.61416 29.44567,73.61416 0,0 -42.20545,58.89131 -42.20545,58.89131 0,0 -77.540278,-11.77825 -77.540278,-11.77825 0,0 -24.53803,90.30002 -24.53803,90.30002 0,0 70.669598,34.35328 70.669598,34.35328 -3.29792,-1.09931 8.87295,74.2816 12.75977,75.5772 0,0 -62.817418,51.03914 -62.817418,51.03914 0,0 48.094598,79.50329 48.094598,79.50329 0,0 68.70653,-38.2794 68.70653,-38.2794 -2.74826,5.5751 56.18234,50.6466 57.90982,47.1131 0,0 -4.90761,81.4663 -4.90761,81.4663 0,0 79.50329,19.6305 79.50329,19.6305 0,0 36.31632,-74.5957 36.31632,-74.5957 2.94457,6.7529 67.92134,0.7852 66.74352,-1.963 0,0 60.85438,56.9282 60.85438,56.9282 0,0 73.61416,-48.0945 73.61416,-48.0945 0,0 -32.39023,-72.6327 -32.39023,-72.6327 3.69052,1.4527 39.96758,-51.98139 37.29784,-53.00217 0,0 85.39242,4.90761 85.39242,4.90761 0,0 14.72282,-93.24459 14.72282,-93.24459 0,0 -68.70652,-19.63046 -68.70652,-19.63046 4.31869,2.0023 -2.00231,-73.88899 -9.81525,-77.54025 0,0 67.72503,-52.02066 67.72503,-52.02066 0,0 -44.16849,-81.46633 -44.16849,-81.46633 0,0 -78.52177,35.33479 -78.52177,35.33479 3.49422,-11.54269 -50.72508,-42.59805 -52.02069,-38.27936 z"
       id="選択範囲"
       inkscape:connector-curvature="0"
       style="fill:#1f2c38;fill-opacity:1;stroke:none;stroke-width:3.92608833" />
  </g>
</svg>
