<?xml version="1.0" encoding="UTF-8" standalone="no"?>
<svg
   xmlns:dc="http://purl.org/dc/elements/1.1/"
   xmlns:cc="http://creativecommons.org/ns#"
   xmlns:rdf="http://www.w3.org/1999/02/22-rdf-syntax-ns#"
   xmlns:svg="http://www.w3.org/2000/svg"
   xmlns="http://www.w3.org/2000/svg"
   xmlns:sodipodi="http://sodipodi.sourceforge.net/DTD/sodipodi-0.dtd"
   xmlns:inkscape="http://www.inkscape.org/namespaces/inkscape"
   version="1.1"
   id="svg2"
   viewBox="0 0 1320.0757 309.76447"
   height="87.42247mm"
   width="372.55484mm"
   inkscape:version="0.91 r13725"
   sodipodi:docname="logo_w.ink.svg">
  <sodipodi:namedview
     pagecolor="#ffffff"
     bordercolor="#666666"
     borderopacity="1"
     objecttolerance="10"
     gridtolerance="10"
     guidetolerance="10"
     inkscape:pageopacity="0"
     inkscape:pageshadow="2"
     inkscape:window-width="1366"
     inkscape:window-height="745"
     id="namedview4260"
     showgrid="false"
     inkscape:zoom="0.56886671"
     inkscape:cx="293.88583"
     inkscape:cy="17.384385"
     inkscape:window-x="-8"
     inkscape:window-y="-8"
     inkscape:window-maximized="1"
     inkscape:current-layer="layer1" />
  <title
     id="title3344">Y-modify Logo</title>
  <defs
     id="defs4" />
  <metadata
     id="metadata7">
    <rdf:RDF>
      <cc:Work
         rdf:about="">
        <dc:format>image/svg+xml</dc:format>
        <dc:type
           rdf:resource="http://purl.org/dc/dcmitype/StillImage" />
        <dc:title>Y-modify Logo</dc:title>
        <dc:date>2015/11/12</dc:date>
        <dc:creator>
          <cc:Agent>
            <dc:title>Y-modify</dc:title>
          </cc:Agent>
        </dc:creator>
        <dc:rights>
          <cc:Agent>
            <dc:title>Y-modify</dc:title>
          </cc:Agent>
        </dc:rights>
        <dc:publisher>
          <cc:Agent>
            <dc:title>Y-modify</dc:title>
          </cc:Agent>
        </dc:publisher>
      </cc:Work>
    </rdf:RDF>
  </metadata>
  <g
     transform="translate(-50.49906,-674.58932)"
     id="layer1">
    <path
       style="fill:#95a5a6;stroke:none;stroke-width:1.11817503;fill-opacity:1"
       id="選択範囲"
       d="m 737.6688,806.92509 c 36.94451,1.25236 44.4251,52.61013 11.18176,65.5586 -4.61806,1.80026 -9.59395,2.52708 -14.53628,2.32581 -29.83291,-1.20763 -42.78139,-37.14578 -23.12387,-57.89911 5.17715,-5.45669 11.47249,-8.15149 18.65117,-9.9853 2.92962,-0.16773 4.83051,-0.35782 7.82722,0 z m 31.30891,-23.76122 c 0,0 1.95681,-25.99757 1.95681,-25.99757 0,0 -24.32031,-5.03179 -24.32031,-5.03179 0,0 -10.34313,19.84761 -10.34313,19.84761 0.22364,-0.72681 -19.5457,1.2859 -19.84761,2.23635 0,0 -13.69764,-17.61126 -13.69764,-17.61126 0,0 -22.64305,13.41811 -22.64305,13.41811 0,0 8.38631,20.96577 8.38631,20.96577 0,0 -12.02037,16.77263 -12.02037,16.77263 0,0 -22.08396,-3.35452 -22.08396,-3.35452 0,0 -6.9886,25.71802 -6.9886,25.71802 0,0 20.12715,9.78403 20.12715,9.78403 -0.93927,-0.31309 2.52707,21.15587 3.63407,21.52487 0,0 -17.8908,14.53628 -17.8908,14.53628 0,0 13.69764,22.64304 13.69764,22.64304 0,0 19.56807,-10.90221 19.56807,-10.90221 -0.78272,1.58781 16.00109,14.42447 16.49309,13.41811 0,0 -1.39772,23.20212 -1.39772,23.20212 0,0 22.64304,5.59089 22.64304,5.59089 0,0 10.34312,-21.24533 10.34312,-21.24533 0.83863,1.92326 19.34443,0.22363 19.00898,-0.55909 0,0 17.33172,16.21353 17.33172,16.21353 0,0 20.96578,-13.69764 20.96578,-13.69764 0,0 -9.22495,-20.68624 -9.22495,-20.68624 1.05109,0.41373 11.38303,-14.80463 10.62267,-15.09536 0,0 24.32031,1.39772 24.32031,1.39772 0,0 4.19315,-26.55666 4.19315,-26.55666 0,0 -19.56806,-5.59087 -19.56806,-5.59087 1.22999,0.57027 -0.57027,-21.04406 -2.79544,-22.08396 0,0 19.28852,-14.81582 19.28852,-14.81582 0,0 -12.57947,-23.20213 -12.57947,-23.20213 0,0 -22.3635,10.06357 -22.3635,10.06357 0.99517,-3.28743 -14.44682,-12.13219 -14.81582,-10.9022 z" />
    <path
       style="fill:#ecf0f1;stroke:none;stroke-width:1.25000036;fill-opacity:1"
       id="Y-m"
       d="m 136.995,802.83247 0,116.27503 46.52502,0 0,-116.27503 85.25004,-116.26254 -53.32503,0 -55.18752,75.95003 -53.95002,-75.95003 -54.575023,0 z m 207.32511,54.11251 0,-30.86251 -96.11252,0 0,30.86251 z m 114.43755,-56.11251 c 10.425,0.2875 17.9625,3.2875 22.6125,8.975 4.66251,5.6875 7.00001,13.7 7.00001,24.02501 l 0,85.27502 43.40001,0 0,-91.46253 c 0,-3.3125 0.25,-6.5625 0.775,-9.7625 6.30001,-10.7625 13.75001,-16.45 22.32501,-17.05 10.43751,0.2875 17.98751,3.2875 22.63751,8.975 4.65,5.6875 6.975,13.7 6.975,24.02501 l 0,85.27502 43.40002,0 0,-96.11253 c 0,-15.5125 -5.175,-29.21251 -15.51251,-41.10001 -10.325,-11.8875 -25.30001,-17.825 -44.93751,-17.825 -22.73751,0 -39.80002,5.9375 -51.17502,17.825 -10.32501,-11.8875 -25.31251,-17.825 -44.93752,-17.825 -15.10001,0 -27.50001,4.55 -37.21251,13.65 l 0,-13.7875 -43.41252,4.65 0,150.52504 43.41252,0 0,-99.21253 c 6.9125,-12.1 15.125,-18.4625 24.65001,-19.0625 z" />
    <path
       style="fill:#95a5a6;stroke:none;stroke-width:1.09418344;fill-opacity:1"
       id="選択範囲#3"
       d="m 751.86801,825.72833 c 10.42756,11.11691 6.72922,32.98963 -11.67495,36.49102 -23.1748,4.4205 -34.41206,-23.42647 -19.49834,-37.42108 3.42479,-3.2169 6.32438,-4.24543 10.74488,-5.31773 7.72493,-1.06136 14.8809,0.3392 20.42841,6.24779 z m -8.39239,-12.1892 c 27.38741,8.14072 25.89932,48.10031 -2.18837,54.09643 -24.02827,5.14266 -41.11941,-21.73049 -28.8755,-42.10418 4.51897,-7.51704 9.74918,-10.36192 17.93367,-12.56123 4.83628,-0.76593 8.3705,-0.84252 13.1302,0.56898 z" />
    <path
       style="fill:#ecf0f1;stroke:none;stroke-width:1.25000024;fill-opacity:1"
       id="d"
       d="m 949.09755,684.60117 c 0,0 0,90.06252 0,90.06252 -7.25,-7.3375 -18.6125,-11.525 -34.1125,-12.5625 -23.77501,0 -42.63752,7.75 -56.60002,23.2625 -13.9375,15.5 -20.9125,33.5875 -20.9125,54.25001 0,20.6875 6.975,38.775 20.9125,54.28751 13.9625,15.4875 32.82501,23.2375 56.60002,23.2375 11.1625,0 22.525,-4.1375 34.1125,-12.4 0,0 0,12.4 0,12.4 0,0 43.38749,0 43.38749,0 0,0 0,-232.38754 0,-232.38754 0,0 -43.38749,-0.15 -43.38749,-0.15 z m -32.5625,196.87504 c -26.87501,-1.02501 -40.82501,-16.01251 -41.86251,-44.96251 3.1,-23.76251 17.05,-36.62501 41.86251,-38.58751 19.6375,2.9875 30.4875,13.175 32.5625,30.53751 0,0 0,25.125 0,25.125 -2.075,15.4875 -12.925,24.7875 -32.5625,27.88751 z" />
    <path
       style="fill:#2ecc71;stroke:none;stroke-width:1.25000024;fill-opacity:1"
       id="i"
       d="m 1033.6135,720.9018 c 5.2625,5.375 11.5375,8.0625 18.85,8.0625 7.3875,0 13.75,-2.6375 19.0625,-7.9125 5.3125,-5.275 7.9625,-11.6125 7.9625,-19.03751 0,-7.425 -2.65,-13.75 -7.9625,-18.9625 -5.3125,-5.225 -11.675,-7.8375 -19.0625,-7.8375 -7.3125,0 -13.5875,2.6375 -18.85,7.9125 -5.25,5.275 -7.875,11.5625 -7.875,18.8875 0,7.21251 2.625,13.50001 7.875,18.88751 z m 42.125,196.81253 c 0,0 0,-152.50002 0,-152.50002 0,0 -43.75,0 -43.75,0 0,0 0,152.50002 0,152.50002 0,0 43.75,0 43.75,0 z" />
    <path
       style="fill:#ecf0f1;stroke:none;stroke-width:1.25000024;fill-opacity:1"
       id="fy"
       d="m 1161.2622,917.69044 c 0,0 0,-124.02502 0,-124.02502 0,0 23.2625,0 23.2625,0 0,0 0,-35.03751 0,-35.03751 0,0 -23.2625,0 -23.2625,0 0,0 0,-14.575 0,-14.575 0,-8.2625 1.725,-14.075 5.1875,-17.4375 3.475,-3.3625 7.9375,-5.0375 13.425,-5.0375 7.4375,0 12.6,1.6 15.5125,4.8 0,0 23.075,-25.73751 23.075,-25.73751 -10.3375,-10.325 -24.8,-15.4875 -43.3875,-15.4875 -17.5875,0 -31.5375,4.9125 -41.875,14.725 -10.3375,9.81251 -15.5,22.47501 -15.5,37.97501 0,0 0,20.775 0,20.775 0,0 -23.25,0 -23.25,0 0,0 0,35.03751 0,35.03751 0,0 23.25,0 23.25,0 0,0 0,124.02502 0,124.02502 0,0 43.5625,0 43.5625,0 z m 141.4001,-36.73751 c -10.4375,-0.3125 -18.25,-3.3125 -23.4125,-8.9875 -5.175,-5.6875 -7.75,-13.7 -7.75,-24.0375 0,0 0,-85.27501 0,-85.27501 0,0 -43.4001,0 -43.4001,0 0,0 0,96.13751 0,96.13751 0,15.4875 5.1625,29.17501 15.4876,41.06251 10.3375,11.8875 25.325,17.8375 44.9625,17.8375 14.375,0 27.0375,-4.7 37.9875,-14.1 0,0 0,7.8875 0,7.8875 0,12.4125 -2.925,21.975 -8.775,28.6875 -5.8375,6.72501 -15.4625,10.08751 -28.9,10.08751 -11.0625,-1.0375 -22.7875,-6.2 -35.2,-15.51251 0,0 -20.1376,23.26251 -20.1376,23.26251 17.5626,16.5375 37.2001,25.1125 58.9126,25.725 0,0 9.2875,-0.925 9.2875,-0.925 18.6125,-0.825 34.6375,-8.525 48.075,-23.1 13.4375,-14.575 20.15,-32.71251 20.15,-54.41251 0,0 0,-142.63752 0,-142.63752 0,0 -43.4125,0 -43.4125,0 0,0 0,101.40001 0,101.40001 -6.825,10.6375 -14.7875,16.275 -23.875,16.9 z" />
  </g>
</svg>
